<?xml version="1.0" encoding="UTF-8" standalone="no"?><svg xmlns="http://www.w3.org/2000/svg" xmlns:xlink="http://www.w3.org/1999/xlink" contentScriptType="application/ecmascript" contentStyleType="text/css" height="112px" preserveAspectRatio="none" style="width:475px;height:112px;background:#A9A9A9;" version="1.1" viewBox="0 0 475 112" width="475px" zoomAndPan="magnify"><defs><filter height="300%" id="faoo4nnty4b2g" width="300%" x="-1" y="-1"><feGaussianBlur result="blurOut" stdDeviation="2.0"/><feColorMatrix in="blurOut" result="blurOut2" type="matrix" values="0 0 0 0 0 0 0 0 0 0 0 0 0 0 0 0 0 0 .4 0"/><feOffset dx="4.0" dy="4.0" in="blurOut2" result="blurOut3"/><feBlend in="SourceGraphic" in2="blurOut3" mode="normal"/></filter></defs><g><!--entity c1--><rect fill="#FEFECE" filter="url(#faoo4nnty4b2g)" height="36.2969" style="stroke: #A80036; stroke-width: 1.5;" width="68" x="6" y="65"/><rect fill="#FEFECE" height="5" style="stroke: #A80036; stroke-width: 1.5;" width="10" x="1" y="70"/><rect fill="#FEFECE" height="5" style="stroke: #A80036; stroke-width: 1.5;" width="10" x="1" y="91.2969"/><text fill="#000000" font-family="sans-serif" font-size="14" lengthAdjust="spacingAndGlyphs" textLength="48" x="16" y="87.9951">comp1</text><!--entity c2--><rect fill="#FEFECE" filter="url(#faoo4nnty4b2g)" height="36.2969" style="stroke: #A80036; stroke-width: 1.5;" width="68" x="109" y="65"/><rect fill="#FEFECE" height="5" style="stroke: #A80036; stroke-width: 1.5;" width="10" x="104" y="70"/><rect fill="#FEFECE" height="5" style="stroke: #A80036; stroke-width: 1.5;" width="10" x="104" y="91.2969"/><text fill="#000000" font-family="sans-serif" font-size="14" lengthAdjust="spacingAndGlyphs" textLength="48" x="119" y="87.9951">comp2</text><!--entity c3--><rect fill="#FEFECE" filter="url(#faoo4nnty4b2g)" height="36.2969" style="stroke: #A80036; stroke-width: 1.5;" width="131" x="221.5" y="65"/><rect fill="#FEFECE" height="5" style="stroke: #A80036; stroke-width: 1.5;" width="10" x="216.5" y="70"/><rect fill="#FEFECE" height="5" style="stroke: #A80036; stroke-width: 1.5;" width="10" x="216.5" y="91.2969"/><text fill="#000000" font-family="sans-serif" font-size="14" lengthAdjust="spacingAndGlyphs" textLength="111" x="231.5" y="87.9951">comp3 (c=a+b)</text><!--entity c4--><rect fill="#FEFECE" filter="url(#faoo4nnty4b2g)" height="36.2969" style="stroke: #A80036; stroke-width: 1.5;" width="68" x="396" y="65"/><rect fill="#FEFECE" height="5" style="stroke: #A80036; stroke-width: 1.5;" width="10" x="391" y="70"/><rect fill="#FEFECE" height="5" style="stroke: #A80036; stroke-width: 1.5;" width="10" x="391" y="91.2969"/><text fill="#000000" font-family="sans-serif" font-size="14" lengthAdjust="spacingAndGlyphs" textLength="48" x="406" y="87.9951">comp4</text><!--link c1 to c3--><path d="M64.76,64.92 C84.75,51.51 114.2,34.32 143,27 C185.2,16.27 231.77,41.66 260.21,61.68 " fill="none" id="c1-c3" style="stroke: #A80036; stroke-width: 1.0;"/><polygon fill="#A80036" points="264.62,64.84,259.6298,56.349,260.5542,61.9298,254.9734,62.8542,264.62,64.84" style="stroke: #A80036; stroke-width: 1.0;"/><text fill="#000000" font-family="sans-serif" font-size="13" lengthAdjust="spacingAndGlyphs" textLength="8" x="144" y="31.0669">a</text><!--link c2 to c3--><path d="M177.13,83 C188.98,83 202.74,83 216.44,83 " fill="none" id="c2-c3" style="stroke: #A80036; stroke-width: 1.0;"/><polygon fill="#A80036" points="221.48,83,212.48,79,216.48,83,212.48,87,221.48,83" style="stroke: #A80036; stroke-width: 1.0;"/><text fill="#000000" font-family="sans-serif" font-size="13" lengthAdjust="spacingAndGlyphs" textLength="8" x="195.25" y="76.0669">b</text><!--link c3 to c4--><path d="M352.64,83 C365.63,83 378.88,83 390.66,83 " fill="none" id="c3-c4" style="stroke: #A80036; stroke-width: 1.0;"/><polygon fill="#A80036" points="395.96,83,386.96,79,390.96,83,386.96,87,395.96,83" style="stroke: #A80036; stroke-width: 1.0;"/><text fill="#000000" font-family="sans-serif" font-size="13" lengthAdjust="spacingAndGlyphs" textLength="7" x="370.75" y="76.0669">c</text><!--
@startuml ModelBased
skinparamlocked backgroundColor darkgrey

[comp1] as c1 
[comp2] as c2
[comp3 (c=a+b)] as c3
[comp4] as c4

c1 -r-> c3 : "a"
c2 -r-> c3 : "b"
c3 -r-> c4 : "c"

@enduml

PlantUML version 1.2019.01(Sat Feb 09 16:32:04 CET 2019)
(LGPL source distribution)
Java Runtime: OpenJDK Runtime Environment
JVM: OpenJDK 64-Bit Server VM
Java Version: 1.8.0_265-b01
Operating System: Linux
OS Version: 5.7.14-200.fc32.x86_64
Default Encoding: UTF-8
Language: en
Country: US
--></g></svg>