<?xml version="1.0" encoding="UTF-8" standalone="no"?><svg xmlns="http://www.w3.org/2000/svg" xmlns:xlink="http://www.w3.org/1999/xlink" contentScriptType="application/ecmascript" contentStyleType="text/css" height="405px" preserveAspectRatio="none" style="width:941px;height:405px;background:#A9A9A9;" version="1.1" viewBox="0 0 941 405" width="941px" zoomAndPan="magnify"><defs><filter height="300%" id="f1mv7i4dxhb39c" width="300%" x="-1" y="-1"><feGaussianBlur result="blurOut" stdDeviation="2.0"/><feColorMatrix in="blurOut" result="blurOut2" type="matrix" values="0 0 0 0 0 0 0 0 0 0 0 0 0 0 0 0 0 0 .4 0"/><feOffset dx="4.0" dy="4.0" in="blurOut2" result="blurOut3"/><feBlend in="SourceGraphic" in2="blurOut3" mode="normal"/></filter></defs><g><!--cluster advanced Architecture--><rect fill="#A9A9A9" filter="url(#f1mv7i4dxhb39c)" height="370" style="stroke: #000000; stroke-width: 1.5;" width="908" x="22" y="24"/><text fill="#000000" font-family="sans-serif" font-size="14" font-weight="bold" lengthAdjust="spacingAndGlyphs" textLength="180" x="386" y="38.9951">advanced Architecture</text><!--cluster Failsafe Architecture--><rect fill="#A9A9A9" filter="url(#f1mv7i4dxhb39c)" height="303" style="stroke: #000000; stroke-width: 1.5;" width="466" x="440" y="67"/><text fill="#000000" font-family="sans-serif" font-size="14" font-weight="bold" lengthAdjust="spacingAndGlyphs" textLength="164" x="591" y="81.9951">Failsafe Architecture</text><!--cluster BA--><rect fill="#A9A9A9" filter="url(#f1mv7i4dxhb39c)" height="183" style="stroke: #000000; stroke-width: 1.5;" width="418" x="464" y="163"/><text fill="#000000" font-family="sans-serif" font-size="14" font-weight="bold" lengthAdjust="spacingAndGlyphs" textLength="145" x="600.5" y="177.9951">Basic Architecture</text><!--entity VB--><rect fill="#FEFECE" filter="url(#f1mv7i4dxhb39c)" height="36.2969" style="stroke: #A80036; stroke-width: 1.5;" width="95" x="325.5" y="198"/><rect fill="#FEFECE" height="5" style="stroke: #A80036; stroke-width: 1.5;" width="10" x="320.5" y="203"/><rect fill="#FEFECE" height="5" style="stroke: #A80036; stroke-width: 1.5;" width="10" x="320.5" y="224.2969"/><text fill="#000000" font-family="sans-serif" font-size="14" lengthAdjust="spacingAndGlyphs" textLength="75" x="335.5" y="220.9951">VeinBridge</text><!--entity VB2--><rect fill="#FEFECE" filter="url(#f1mv7i4dxhb39c)" height="36.2969" style="stroke: #A80036; stroke-width: 1.5;" width="105" x="180.5" y="198"/><rect fill="#FEFECE" height="5" style="stroke: #A80036; stroke-width: 1.5;" width="10" x="175.5" y="203"/><rect fill="#FEFECE" height="5" style="stroke: #A80036; stroke-width: 1.5;" width="10" x="175.5" y="224.2969"/><text fill="#000000" font-family="sans-serif" font-size="14" lengthAdjust="spacingAndGlyphs" textLength="85" x="190.5" y="220.9951">VeinBroker2</text><!--entity VN21--><rect fill="#FEFECE" filter="url(#f1mv7i4dxhb39c)" height="36.2969" style="stroke: #A80036; stroke-width: 1.5;" width="105" x="38.5" y="294"/><rect fill="#FEFECE" height="5" style="stroke: #A80036; stroke-width: 1.5;" width="10" x="33.5" y="299"/><rect fill="#FEFECE" height="5" style="stroke: #A80036; stroke-width: 1.5;" width="10" x="33.5" y="320.2969"/><text fill="#000000" font-family="sans-serif" font-size="14" lengthAdjust="spacingAndGlyphs" textLength="85" x="48.5" y="316.9951">VeinNode21</text><!--entity VN22--><rect fill="#FEFECE" filter="url(#f1mv7i4dxhb39c)" height="36.2969" style="stroke: #A80036; stroke-width: 1.5;" width="105" x="178.5" y="294"/><rect fill="#FEFECE" height="5" style="stroke: #A80036; stroke-width: 1.5;" width="10" x="173.5" y="299"/><rect fill="#FEFECE" height="5" style="stroke: #A80036; stroke-width: 1.5;" width="10" x="173.5" y="320.2969"/><text fill="#000000" font-family="sans-serif" font-size="14" lengthAdjust="spacingAndGlyphs" textLength="85" x="188.5" y="316.9951">VeinNode22</text><!--entity VN23--><rect fill="#FEFECE" filter="url(#f1mv7i4dxhb39c)" height="36.2969" style="stroke: #A80036; stroke-width: 1.5;" width="105" x="318.5" y="294"/><rect fill="#FEFECE" height="5" style="stroke: #A80036; stroke-width: 1.5;" width="10" x="313.5" y="299"/><rect fill="#FEFECE" height="5" style="stroke: #A80036; stroke-width: 1.5;" width="10" x="313.5" y="320.2969"/><text fill="#000000" font-family="sans-serif" font-size="14" lengthAdjust="spacingAndGlyphs" textLength="85" x="328.5" y="316.9951">VeinNode23</text><!--entity VBU--><rect fill="#FEFECE" filter="url(#f1mv7i4dxhb39c)" height="36.2969" style="stroke: #A80036; stroke-width: 1.5;" width="102" x="552" y="102"/><rect fill="#FEFECE" height="5" style="stroke: #A80036; stroke-width: 1.5;" width="10" x="547" y="107"/><rect fill="#FEFECE" height="5" style="stroke: #A80036; stroke-width: 1.5;" width="10" x="547" y="128.2969"/><text fill="#000000" font-family="sans-serif" font-size="14" lengthAdjust="spacingAndGlyphs" textLength="82" x="562" y="124.9951">VeinBackup</text><!--entity VB1--><rect fill="#FEFECE" filter="url(#f1mv7i4dxhb39c)" height="36.2969" style="stroke: #A80036; stroke-width: 1.5;" width="105" x="550.5" y="198"/><rect fill="#FEFECE" height="5" style="stroke: #A80036; stroke-width: 1.5;" width="10" x="545.5" y="203"/><rect fill="#FEFECE" height="5" style="stroke: #A80036; stroke-width: 1.5;" width="10" x="545.5" y="224.2969"/><text fill="#000000" font-family="sans-serif" font-size="14" lengthAdjust="spacingAndGlyphs" textLength="85" x="560.5" y="220.9951">VeinBroker1</text><!--entity VN11--><rect fill="#FEFECE" filter="url(#f1mv7i4dxhb39c)" height="36.2969" style="stroke: #A80036; stroke-width: 1.5;" width="105" x="480.5" y="294"/><rect fill="#FEFECE" height="5" style="stroke: #A80036; stroke-width: 1.5;" width="10" x="475.5" y="299"/><rect fill="#FEFECE" height="5" style="stroke: #A80036; stroke-width: 1.5;" width="10" x="475.5" y="320.2969"/><text fill="#000000" font-family="sans-serif" font-size="14" lengthAdjust="spacingAndGlyphs" textLength="85" x="490.5" y="316.9951">VeinNode11</text><!--entity VN12--><rect fill="#FEFECE" filter="url(#f1mv7i4dxhb39c)" height="36.2969" style="stroke: #A80036; stroke-width: 1.5;" width="105" x="620.5" y="294"/><rect fill="#FEFECE" height="5" style="stroke: #A80036; stroke-width: 1.5;" width="10" x="615.5" y="299"/><rect fill="#FEFECE" height="5" style="stroke: #A80036; stroke-width: 1.5;" width="10" x="615.5" y="320.2969"/><text fill="#000000" font-family="sans-serif" font-size="14" lengthAdjust="spacingAndGlyphs" textLength="85" x="630.5" y="316.9951">VeinNode12</text><!--entity VN13--><rect fill="#FEFECE" filter="url(#f1mv7i4dxhb39c)" height="36.2969" style="stroke: #A80036; stroke-width: 1.5;" width="105" x="760.5" y="294"/><rect fill="#FEFECE" height="5" style="stroke: #A80036; stroke-width: 1.5;" width="10" x="755.5" y="299"/><rect fill="#FEFECE" height="5" style="stroke: #A80036; stroke-width: 1.5;" width="10" x="755.5" y="320.2969"/><text fill="#000000" font-family="sans-serif" font-size="14" lengthAdjust="spacingAndGlyphs" textLength="85" x="770.5" y="316.9951">VeinNode13</text><!--link VBU to VB1--><path d="M603,138.24 C603,155.2 603,180.95 603,197.87 " fill="none" id="VBU-VB1" style="stroke: #A80036; stroke-width: 1.0;"/><!--link VB to VB1--><path d="M420.62,216 C463.84,216 507.06,216 550.28,216 " fill="none" id="VB-VB1" style="stroke: #A80036; stroke-width: 1.0;"/><!--link VB2 to VB--><path d="M285.77,216 C298.95,216 312.12,216 325.3,216 " fill="none" id="VB2-VB" style="stroke: #A80036; stroke-width: 1.0;"/><!--link VB1 to VN11--><path d="M590.16,234.24 C577.53,251.2 558.36,276.95 545.76,293.87 " fill="none" id="VB1-VN11" style="stroke: #A80036; stroke-width: 1.0;"/><!--link VB1 to VN12--><path d="M615.84,234.24 C628.47,251.2 647.64,276.95 660.24,293.87 " fill="none" id="VB1-VN12" style="stroke: #A80036; stroke-width: 1.0;"/><!--link VB1 to VN13--><path d="M641.03,234.02 C678.97,251.01 736.93,276.95 774.9,293.95 " fill="none" id="VB1-VN13" style="stroke: #A80036; stroke-width: 1.0;"/><!--link VB2 to VN21--><path d="M207.28,234.02 C181.71,250.95 142.68,276.79 117,293.79 " fill="none" id="VB2-VN21" style="stroke: #A80036; stroke-width: 1.0;"/><!--link VB2 to VN22--><path d="M232.63,234.24 C232.27,251.2 231.72,276.95 231.36,293.87 " fill="none" id="VB2-VN22" style="stroke: #A80036; stroke-width: 1.0;"/><!--link VB2 to VN23--><path d="M257.99,234.02 C282.85,250.95 320.78,276.79 345.73,293.79 " fill="none" id="VB2-VN23" style="stroke: #A80036; stroke-width: 1.0;"/><!--
@startuml NodeArch
skinparamlocked backgroundColor darkgrey
rectangle "advanced Architecture" {
rectangle "Failsafe Architecture" {
rectangle "Basic Architecture" as BA {
[VeinBroker1] as VB1
[VeinNode11] as VN11
[VeinNode12] as VN12
[VeinNode13] as VN13
}

[VeinBackup] as VBU

}
[VeinBridge] as VB

[VeinBroker2] as VB2
[VeinNode21] as VN21
[VeinNode22] as VN22
[VeinNode23] as VN23
}

VBU - - VB1
VB1 -l- VB
VB2 -r- VB

VB1 -d- VN11
VB1 -d- VN12
VB1 -d- VN13

VB2 -d- VN21
VB2 -d- VN22
VB2 -d- VN23

@enduml

PlantUML version 1.2019.01(Sat Feb 09 16:32:04 CET 2019)
(LGPL source distribution)
Java Runtime: OpenJDK Runtime Environment
JVM: OpenJDK 64-Bit Server VM
Java Version: 1.8.0_265-b01
Operating System: Linux
OS Version: 5.7.14-200.fc32.x86_64
Default Encoding: UTF-8
Language: en
Country: US
--></g></svg>