<?xml version="1.0" encoding="UTF-8" standalone="no"?><svg xmlns="http://www.w3.org/2000/svg" xmlns:xlink="http://www.w3.org/1999/xlink" contentScriptType="application/ecmascript" contentStyleType="text/css" height="391px" preserveAspectRatio="none" style="width:445px;height:391px;background:#A9A9A9;" version="1.1" viewBox="0 0 445 391" width="445px" zoomAndPan="magnify"><defs><filter height="300%" id="fjpy0m00055so" width="300%" x="-1" y="-1"><feGaussianBlur result="blurOut" stdDeviation="2.0"/><feColorMatrix in="blurOut" result="blurOut2" type="matrix" values="0 0 0 0 0 0 0 0 0 0 0 0 0 0 0 0 0 0 .4 0"/><feOffset dx="4.0" dy="4.0" in="blurOut2" result="blurOut3"/><feBlend in="SourceGraphic" in2="blurOut3" mode="normal"/></filter></defs><g><!--class VeinNode--><rect fill="#FEFECE" filter="url(#fjpy0m00055so)" height="48" id="VeinNode" style="stroke: #A80036; stroke-width: 1.5;" width="92" x="227.5" y="8"/><ellipse cx="242.5" cy="24" fill="#ADD1B2" rx="11" ry="11" style="stroke: #A80036; stroke-width: 1.0;"/><path d="M245.4688,29.6406 Q244.8906,29.9375 244.25,30.0781 Q243.6094,30.2344 242.9063,30.2344 Q240.4063,30.2344 239.0781,28.5938 Q237.7656,26.9375 237.7656,23.8125 Q237.7656,20.6875 239.0781,19.0313 Q240.4063,17.375 242.9063,17.375 Q243.6094,17.375 244.25,17.5313 Q244.9063,17.6875 245.4688,17.9844 L245.4688,20.7031 Q244.8438,20.125 244.25,19.8594 Q243.6563,19.5781 243.0313,19.5781 Q241.6875,19.5781 241,20.6563 Q240.3125,21.7188 240.3125,23.8125 Q240.3125,25.9063 241,26.9844 Q241.6875,28.0469 243.0313,28.0469 Q243.6563,28.0469 244.25,27.7813 Q244.8438,27.5 245.4688,26.9219 L245.4688,29.6406 Z "/><text fill="#000000" font-family="sans-serif" font-size="12" lengthAdjust="spacingAndGlyphs" textLength="60" x="256.5" y="28.1543">VeinNode</text><line style="stroke: #A80036; stroke-width: 1.5;" x1="228.5" x2="318.5" y1="40" y2="40"/><line style="stroke: #A80036; stroke-width: 1.5;" x1="228.5" x2="318.5" y1="48" y2="48"/><!--class VeinNetworkSystem--><rect fill="#FEFECE" filter="url(#fjpy0m00055so)" height="48" id="VeinNetworkSystem" style="stroke: #A80036; stroke-width: 1.5;" width="155" x="6" y="224"/><ellipse cx="21" cy="240" fill="#ADD1B2" rx="11" ry="11" style="stroke: #A80036; stroke-width: 1.0;"/><path d="M23.9688,245.6406 Q23.3906,245.9375 22.75,246.0781 Q22.1094,246.2344 21.4063,246.2344 Q18.9063,246.2344 17.5781,244.5938 Q16.2656,242.9375 16.2656,239.8125 Q16.2656,236.6875 17.5781,235.0313 Q18.9063,233.375 21.4063,233.375 Q22.1094,233.375 22.75,233.5313 Q23.4063,233.6875 23.9688,233.9844 L23.9688,236.7031 Q23.3438,236.125 22.75,235.8594 Q22.1563,235.5781 21.5313,235.5781 Q20.1875,235.5781 19.5,236.6563 Q18.8125,237.7188 18.8125,239.8125 Q18.8125,241.9063 19.5,242.9844 Q20.1875,244.0469 21.5313,244.0469 Q22.1563,244.0469 22.75,243.7813 Q23.3438,243.5 23.9688,242.9219 L23.9688,245.6406 Z "/><text fill="#000000" font-family="sans-serif" font-size="12" lengthAdjust="spacingAndGlyphs" textLength="123" x="35" y="244.1543">VeinNetworkSystem</text><line style="stroke: #A80036; stroke-width: 1.5;" x1="7" x2="160" y1="256" y2="256"/><line style="stroke: #A80036; stroke-width: 1.5;" x1="7" x2="160" y1="264" y2="264"/><!--class VeinEventHandler--><rect fill="#FEFECE" filter="url(#fjpy0m00055so)" height="48" id="VeinEventHandler" style="stroke: #A80036; stroke-width: 1.5;" width="143" x="140" y="116"/><ellipse cx="155" cy="132" fill="#ADD1B2" rx="11" ry="11" style="stroke: #A80036; stroke-width: 1.0;"/><path d="M157.9688,137.6406 Q157.3906,137.9375 156.75,138.0781 Q156.1094,138.2344 155.4063,138.2344 Q152.9063,138.2344 151.5781,136.5938 Q150.2656,134.9375 150.2656,131.8125 Q150.2656,128.6875 151.5781,127.0313 Q152.9063,125.375 155.4063,125.375 Q156.1094,125.375 156.75,125.5313 Q157.4063,125.6875 157.9688,125.9844 L157.9688,128.7031 Q157.3438,128.125 156.75,127.8594 Q156.1563,127.5781 155.5313,127.5781 Q154.1875,127.5781 153.5,128.6563 Q152.8125,129.7188 152.8125,131.8125 Q152.8125,133.9063 153.5,134.9844 Q154.1875,136.0469 155.5313,136.0469 Q156.1563,136.0469 156.75,135.7813 Q157.3438,135.5 157.9688,134.9219 L157.9688,137.6406 Z "/><text fill="#000000" font-family="sans-serif" font-size="12" lengthAdjust="spacingAndGlyphs" textLength="111" x="169" y="136.1543">VeinEventHandler</text><line style="stroke: #A80036; stroke-width: 1.5;" x1="141" x2="282" y1="148" y2="148"/><line style="stroke: #A80036; stroke-width: 1.5;" x1="141" x2="282" y1="156" y2="156"/><!--class VeinStorage--><rect fill="#FEFECE" filter="url(#fjpy0m00055so)" height="48" id="VeinStorage" style="stroke: #A80036; stroke-width: 1.5;" width="109" x="268" y="224"/><ellipse cx="283" cy="240" fill="#ADD1B2" rx="11" ry="11" style="stroke: #A80036; stroke-width: 1.0;"/><path d="M285.9688,245.6406 Q285.3906,245.9375 284.75,246.0781 Q284.1094,246.2344 283.4063,246.2344 Q280.9063,246.2344 279.5781,244.5938 Q278.2656,242.9375 278.2656,239.8125 Q278.2656,236.6875 279.5781,235.0313 Q280.9063,233.375 283.4063,233.375 Q284.1094,233.375 284.75,233.5313 Q285.4063,233.6875 285.9688,233.9844 L285.9688,236.7031 Q285.3438,236.125 284.75,235.8594 Q284.1563,235.5781 283.5313,235.5781 Q282.1875,235.5781 281.5,236.6563 Q280.8125,237.7188 280.8125,239.8125 Q280.8125,241.9063 281.5,242.9844 Q282.1875,244.0469 283.5313,244.0469 Q284.1563,244.0469 284.75,243.7813 Q285.3438,243.5 285.9688,242.9219 L285.9688,245.6406 Z "/><text fill="#000000" font-family="sans-serif" font-size="12" lengthAdjust="spacingAndGlyphs" textLength="77" x="297" y="244.1543">VeinStorage</text><line style="stroke: #A80036; stroke-width: 1.5;" x1="269" x2="376" y1="256" y2="256"/><line style="stroke: #A80036; stroke-width: 1.5;" x1="269" x2="376" y1="264" y2="264"/><!--class VeinTree--><rect fill="#FEFECE" filter="url(#fjpy0m00055so)" height="48" id="VeinTree" style="stroke: #A80036; stroke-width: 1.5;" width="87" x="225" y="332"/><ellipse cx="240" cy="348" fill="#ADD1B2" rx="11" ry="11" style="stroke: #A80036; stroke-width: 1.0;"/><path d="M242.9688,353.6406 Q242.3906,353.9375 241.75,354.0781 Q241.1094,354.2344 240.4063,354.2344 Q237.9063,354.2344 236.5781,352.5938 Q235.2656,350.9375 235.2656,347.8125 Q235.2656,344.6875 236.5781,343.0313 Q237.9063,341.375 240.4063,341.375 Q241.1094,341.375 241.75,341.5313 Q242.4063,341.6875 242.9688,341.9844 L242.9688,344.7031 Q242.3438,344.125 241.75,343.8594 Q241.1563,343.5781 240.5313,343.5781 Q239.1875,343.5781 238.5,344.6563 Q237.8125,345.7188 237.8125,347.8125 Q237.8125,349.9063 238.5,350.9844 Q239.1875,352.0469 240.5313,352.0469 Q241.1563,352.0469 241.75,351.7813 Q242.3438,351.5 242.9688,350.9219 L242.9688,353.6406 Z "/><text fill="#000000" font-family="sans-serif" font-size="12" lengthAdjust="spacingAndGlyphs" textLength="55" x="254" y="352.1543">VeinTree</text><line style="stroke: #A80036; stroke-width: 1.5;" x1="226" x2="311" y1="364" y2="364"/><line style="stroke: #A80036; stroke-width: 1.5;" x1="226" x2="311" y1="372" y2="372"/><!--link VeinNode to VeinNetworkSystem--><path d="M215.05,52.56 C183.52,65.87 146.29,86.5 122.5,116 C97.02,147.58 88.18,195.42 85.12,223.71 " fill="none" id="VeinNode-VeinNetworkSystem" style="stroke: #A80036; stroke-width: 1.0;"/><polygon fill="#A80036" points="227.26,47.64,220.2,46.1717,216.1292,52.124,223.1893,53.5922,227.26,47.64" style="stroke: #A80036; stroke-width: 1.0;"/><text fill="#000000" font-family="sans-serif" font-size="13" lengthAdjust="spacingAndGlyphs" textLength="8" x="211.567" y="45.9635">1</text><text fill="#000000" font-family="sans-serif" font-size="13" lengthAdjust="spacingAndGlyphs" textLength="8" x="76.5399" y="213.0443">1</text><!--link VeinNode to VeinEventHandler--><path d="M253.34,67.47 C244.11,83.25 233.41,101.54 225.14,115.68 " fill="none" id="VeinNode-VeinEventHandler" style="stroke: #A80036; stroke-width: 1.0;"/><polygon fill="#A80036" points="260.05,56,253.5654,59.1544,253.9831,66.3534,260.4677,63.199,260.05,56" style="stroke: #A80036; stroke-width: 1.0;"/><text fill="#000000" font-family="sans-serif" font-size="13" lengthAdjust="spacingAndGlyphs" textLength="8" x="247.5784" y="76.1558">1</text><text fill="#000000" font-family="sans-serif" font-size="13" lengthAdjust="spacingAndGlyphs" textLength="8" x="219.4898" y="105.007">1</text><!--link VeinNode to VeinStorage--><path d="M286.45,68.85 C291.35,83.35 296.66,100.34 300.5,116 C309.62,153.18 316.16,197.22 319.63,223.6 " fill="none" id="VeinNode-VeinStorage" style="stroke: #A80036; stroke-width: 1.0;"/><polygon fill="#A80036" points="282.12,56.34,280.3049,63.3189,286.0489,67.6786,287.864,60.6996,282.12,56.34" style="stroke: #A80036; stroke-width: 1.0;"/><text fill="#000000" font-family="sans-serif" font-size="13" lengthAdjust="spacingAndGlyphs" textLength="8" x="275.2461" y="76.1841">1</text><text fill="#000000" font-family="sans-serif" font-size="13" lengthAdjust="spacingAndGlyphs" textLength="8" x="309.9554" y="212.9075">1</text><!--link VeinNode to VeinTree--><path d="M310.72,65.21 C359.35,111.37 433.92,198.84 394.5,272 C377.17,304.17 341.31,325.93 312.26,339.06 " fill="none" id="VeinNode-VeinTree" style="stroke: #A80036; stroke-width: 1.0;"/><polygon fill="#A80036" points="301.09,56.27,302.767,63.2834,309.8859,64.4329,308.2089,57.4195,301.09,56.27" style="stroke: #A80036; stroke-width: 1.0;"/><text fill="#000000" font-family="sans-serif" font-size="13" lengthAdjust="spacingAndGlyphs" textLength="8" x="298.8401" y="76.097">1</text><text fill="#000000" font-family="sans-serif" font-size="13" lengthAdjust="spacingAndGlyphs" textLength="8" x="319.8718" y="332.2424">1</text><!--link VeinEventHandler to VeinNetworkSystem--><path d="M183.73,164 C162.4,181.66 133.08,205.94 111.66,223.68 " fill="none" id="VeinEventHandler-VeinNetworkSystem" style="stroke: #A80036; stroke-width: 1.0;"/><text fill="#000000" font-family="sans-serif" font-size="13" lengthAdjust="spacingAndGlyphs" textLength="8" x="167.5889" y="184.1558">1</text><text fill="#000000" font-family="sans-serif" font-size="13" lengthAdjust="spacingAndGlyphs" textLength="8" x="109.549" y="213.007">1</text><!--link VeinEventHandler to VeinStorage--><path d="M235.59,164 C254.08,181.66 279.5,205.94 298.08,223.68 " fill="none" id="VeinEventHandler-VeinStorage" style="stroke: #A80036; stroke-width: 1.0;"/><text fill="#000000" font-family="sans-serif" font-size="13" lengthAdjust="spacingAndGlyphs" textLength="8" x="232.7381" y="184.1558">1</text><text fill="#000000" font-family="sans-serif" font-size="13" lengthAdjust="spacingAndGlyphs" textLength="8" x="283.1526" y="213.007">1</text><!--link VeinEventHandler to VeinTree--><path d="M217.71,164.31 C228.67,205.47 251.34,290.58 262.3,331.72 " fill="none" id="VeinEventHandler-VeinTree" style="stroke: #A80036; stroke-width: 1.0;"/><text fill="#000000" font-family="sans-serif" font-size="13" lengthAdjust="spacingAndGlyphs" textLength="8" x="210.2487" y="184.1468">1</text><text fill="#000000" font-family="sans-serif" font-size="13" lengthAdjust="spacingAndGlyphs" textLength="8" x="251.8138" y="321.0567">1</text><!--link VeinStorage to VeinTree--><path d="M310.78,272 C301.79,289.66 289.42,313.94 280.38,331.68 " fill="none" id="VeinStorage-VeinTree" style="stroke: #A80036; stroke-width: 1.0;"/><text fill="#000000" font-family="sans-serif" font-size="13" lengthAdjust="spacingAndGlyphs" textLength="8" x="298.7517" y="292.1558">1</text><text fill="#000000" font-family="sans-serif" font-size="13" lengthAdjust="spacingAndGlyphs" textLength="8" x="274.3008" y="321.007">1</text><!--link VeinNetworkSystem to VeinTree--><path d="M123.64,272 C154.57,289.72 197.13,314.11 228.12,331.86 " fill="none" id="VeinNetworkSystem-VeinTree" style="stroke: #A80036; stroke-width: 1.0;"/><text fill="#000000" font-family="sans-serif" font-size="13" lengthAdjust="spacingAndGlyphs" textLength="8" x="124.9009" y="292.1558">1</text><text fill="#000000" font-family="sans-serif" font-size="13" lengthAdjust="spacingAndGlyphs" textLength="8" x="208.7476" y="320.8362">1</text><!--
@startuml NodeInnerArch
skinparamlocked backgroundColor darkgrey

VeinNode "1" *- - "1" VeinNetworkSystem
VeinNode "1" *- - "1" VeinEventHandler
VeinNode "1" *- - "1" VeinStorage
VeinNode "1" *- - "1" VeinTree

VeinEventHandler "1" - - "1" VeinNetworkSystem
VeinEventHandler "1" - - "1" VeinStorage
VeinEventHandler "1" - - "1" VeinTree
VeinStorage "1" - - "1" VeinTree
VeinNetworkSystem "1" - - "1" VeinTree


@enduml

PlantUML version 1.2019.01(Sat Feb 09 16:32:04 CET 2019)
(LGPL source distribution)
Java Runtime: OpenJDK Runtime Environment
JVM: OpenJDK 64-Bit Server VM
Java Version: 1.8.0_265-b01
Operating System: Linux
OS Version: 5.7.14-200.fc32.x86_64
Default Encoding: UTF-8
Language: en
Country: US
--></g></svg>