<?xml version="1.0" encoding="UTF-8" standalone="no"?><svg xmlns="http://www.w3.org/2000/svg" xmlns:xlink="http://www.w3.org/1999/xlink" contentScriptType="application/ecmascript" contentStyleType="text/css" height="283px" preserveAspectRatio="none" style="width:439px;height:283px;background:#A9A9A9;" version="1.1" viewBox="0 0 439 283" width="439px" zoomAndPan="magnify"><defs><filter height="300%" id="fbmp4unt1jjda" width="300%" x="-1" y="-1"><feGaussianBlur result="blurOut" stdDeviation="2.0"/><feColorMatrix in="blurOut" result="blurOut2" type="matrix" values="0 0 0 0 0 0 0 0 0 0 0 0 0 0 0 0 0 0 .4 0"/><feOffset dx="4.0" dy="4.0" in="blurOut2" result="blurOut3"/><feBlend in="SourceGraphic" in2="blurOut3" mode="normal"/></filter></defs><g><!--class VeinNode--><rect fill="#FEFECE" filter="url(#fbmp4unt1jjda)" height="48" id="VeinNode" style="stroke: #A80036; stroke-width: 1.5;" width="92" x="242.5" y="8"/><ellipse cx="257.5" cy="24" fill="#ADD1B2" rx="11" ry="11" style="stroke: #A80036; stroke-width: 1.0;"/><path d="M260.4688,29.6406 Q259.8906,29.9375 259.25,30.0781 Q258.6094,30.2344 257.9063,30.2344 Q255.4063,30.2344 254.0781,28.5938 Q252.7656,26.9375 252.7656,23.8125 Q252.7656,20.6875 254.0781,19.0313 Q255.4063,17.375 257.9063,17.375 Q258.6094,17.375 259.25,17.5313 Q259.9063,17.6875 260.4688,17.9844 L260.4688,20.7031 Q259.8438,20.125 259.25,19.8594 Q258.6563,19.5781 258.0313,19.5781 Q256.6875,19.5781 256,20.6563 Q255.3125,21.7188 255.3125,23.8125 Q255.3125,25.9063 256,26.9844 Q256.6875,28.0469 258.0313,28.0469 Q258.6563,28.0469 259.25,27.7813 Q259.8438,27.5 260.4688,26.9219 L260.4688,29.6406 Z "/><text fill="#000000" font-family="sans-serif" font-size="12" lengthAdjust="spacingAndGlyphs" textLength="60" x="271.5" y="28.1543">VeinNode</text><line style="stroke: #A80036; stroke-width: 1.5;" x1="243.5" x2="333.5" y1="40" y2="40"/><line style="stroke: #A80036; stroke-width: 1.5;" x1="243.5" x2="333.5" y1="48" y2="48"/><!--class VeinModule--><rect fill="#FEFECE" filter="url(#fbmp4unt1jjda)" height="48" id="VeinModule" style="stroke: #A80036; stroke-width: 1.5;" width="104" x="161.5" y="116"/><ellipse cx="176.5" cy="132" fill="#ADD1B2" rx="11" ry="11" style="stroke: #A80036; stroke-width: 1.0;"/><path d="M179.4688,137.6406 Q178.8906,137.9375 178.25,138.0781 Q177.6094,138.2344 176.9063,138.2344 Q174.4063,138.2344 173.0781,136.5938 Q171.7656,134.9375 171.7656,131.8125 Q171.7656,128.6875 173.0781,127.0313 Q174.4063,125.375 176.9063,125.375 Q177.6094,125.375 178.25,125.5313 Q178.9063,125.6875 179.4688,125.9844 L179.4688,128.7031 Q178.8438,128.125 178.25,127.8594 Q177.6563,127.5781 177.0313,127.5781 Q175.6875,127.5781 175,128.6563 Q174.3125,129.7188 174.3125,131.8125 Q174.3125,133.9063 175,134.9844 Q175.6875,136.0469 177.0313,136.0469 Q177.6563,136.0469 178.25,135.7813 Q178.8438,135.5 179.4688,134.9219 L179.4688,137.6406 Z "/><text fill="#000000" font-family="sans-serif" font-size="12" lengthAdjust="spacingAndGlyphs" textLength="72" x="190.5" y="136.1543">VeinModule</text><line style="stroke: #A80036; stroke-width: 1.5;" x1="162.5" x2="264.5" y1="148" y2="148"/><line style="stroke: #A80036; stroke-width: 1.5;" x1="162.5" x2="264.5" y1="156" y2="156"/><!--class VeinSubsystem--><rect fill="#FEFECE" filter="url(#fbmp4unt1jjda)" height="48" id="VeinSubsystem" style="stroke: #A80036; stroke-width: 1.5;" width="127" x="301" y="116"/><ellipse cx="316" cy="132" fill="#ADD1B2" rx="11" ry="11" style="stroke: #A80036; stroke-width: 1.0;"/><path d="M318.9688,137.6406 Q318.3906,137.9375 317.75,138.0781 Q317.1094,138.2344 316.4063,138.2344 Q313.9063,138.2344 312.5781,136.5938 Q311.2656,134.9375 311.2656,131.8125 Q311.2656,128.6875 312.5781,127.0313 Q313.9063,125.375 316.4063,125.375 Q317.1094,125.375 317.75,125.5313 Q318.4063,125.6875 318.9688,125.9844 L318.9688,128.7031 Q318.3438,128.125 317.75,127.8594 Q317.1563,127.5781 316.5313,127.5781 Q315.1875,127.5781 314.5,128.6563 Q313.8125,129.7188 313.8125,131.8125 Q313.8125,133.9063 314.5,134.9844 Q315.1875,136.0469 316.5313,136.0469 Q317.1563,136.0469 317.75,135.7813 Q318.3438,135.5 318.9688,134.9219 L318.9688,137.6406 Z "/><text fill="#000000" font-family="sans-serif" font-size="12" lengthAdjust="spacingAndGlyphs" textLength="95" x="330" y="136.1543">VeinSubsystem</text><line style="stroke: #A80036; stroke-width: 1.5;" x1="302" x2="427" y1="148" y2="148"/><line style="stroke: #A80036; stroke-width: 1.5;" x1="302" x2="427" y1="156" y2="156"/><!--class VeinComponent--><rect fill="#FEFECE" filter="url(#fbmp4unt1jjda)" height="48" id="VeinComponent" style="stroke: #A80036; stroke-width: 1.5;" width="131" x="6" y="224"/><ellipse cx="21" cy="240" fill="#ADD1B2" rx="11" ry="11" style="stroke: #A80036; stroke-width: 1.0;"/><path d="M23.9688,245.6406 Q23.3906,245.9375 22.75,246.0781 Q22.1094,246.2344 21.4063,246.2344 Q18.9063,246.2344 17.5781,244.5938 Q16.2656,242.9375 16.2656,239.8125 Q16.2656,236.6875 17.5781,235.0313 Q18.9063,233.375 21.4063,233.375 Q22.1094,233.375 22.75,233.5313 Q23.4063,233.6875 23.9688,233.9844 L23.9688,236.7031 Q23.3438,236.125 22.75,235.8594 Q22.1563,235.5781 21.5313,235.5781 Q20.1875,235.5781 19.5,236.6563 Q18.8125,237.7188 18.8125,239.8125 Q18.8125,241.9063 19.5,242.9844 Q20.1875,244.0469 21.5313,244.0469 Q22.1563,244.0469 22.75,243.7813 Q23.3438,243.5 23.9688,242.9219 L23.9688,245.6406 Z "/><text fill="#000000" font-family="sans-serif" font-size="12" lengthAdjust="spacingAndGlyphs" textLength="99" x="35" y="244.1543">VeinComponent</text><line style="stroke: #A80036; stroke-width: 1.5;" x1="7" x2="136" y1="256" y2="256"/><line style="stroke: #A80036; stroke-width: 1.5;" x1="7" x2="136" y1="264" y2="264"/><!--class VeinRpc--><rect fill="#FEFECE" filter="url(#fbmp4unt1jjda)" height="48" id="VeinRpc" style="stroke: #A80036; stroke-width: 1.5;" width="82" x="172.5" y="224"/><ellipse cx="187.5" cy="240" fill="#ADD1B2" rx="11" ry="11" style="stroke: #A80036; stroke-width: 1.0;"/><path d="M190.4688,245.6406 Q189.8906,245.9375 189.25,246.0781 Q188.6094,246.2344 187.9063,246.2344 Q185.4063,246.2344 184.0781,244.5938 Q182.7656,242.9375 182.7656,239.8125 Q182.7656,236.6875 184.0781,235.0313 Q185.4063,233.375 187.9063,233.375 Q188.6094,233.375 189.25,233.5313 Q189.9063,233.6875 190.4688,233.9844 L190.4688,236.7031 Q189.8438,236.125 189.25,235.8594 Q188.6563,235.5781 188.0313,235.5781 Q186.6875,235.5781 186,236.6563 Q185.3125,237.7188 185.3125,239.8125 Q185.3125,241.9063 186,242.9844 Q186.6875,244.0469 188.0313,244.0469 Q188.6563,244.0469 189.25,243.7813 Q189.8438,243.5 190.4688,242.9219 L190.4688,245.6406 Z "/><text fill="#000000" font-family="sans-serif" font-size="12" lengthAdjust="spacingAndGlyphs" textLength="50" x="201.5" y="244.1543">VeinRpc</text><line style="stroke: #A80036; stroke-width: 1.5;" x1="173.5" x2="253.5" y1="256" y2="256"/><line style="stroke: #A80036; stroke-width: 1.5;" x1="173.5" x2="253.5" y1="264" y2="264"/><!--class VeinActiveObject--><rect fill="#FEFECE" filter="url(#fbmp4unt1jjda)" height="48" id="VeinActiveObject" style="stroke: #A80036; stroke-width: 1.5;" width="136" x="289.5" y="224"/><ellipse cx="304.5" cy="240" fill="#ADD1B2" rx="11" ry="11" style="stroke: #A80036; stroke-width: 1.0;"/><path d="M307.4688,245.6406 Q306.8906,245.9375 306.25,246.0781 Q305.6094,246.2344 304.9063,246.2344 Q302.4063,246.2344 301.0781,244.5938 Q299.7656,242.9375 299.7656,239.8125 Q299.7656,236.6875 301.0781,235.0313 Q302.4063,233.375 304.9063,233.375 Q305.6094,233.375 306.25,233.5313 Q306.9063,233.6875 307.4688,233.9844 L307.4688,236.7031 Q306.8438,236.125 306.25,235.8594 Q305.6563,235.5781 305.0313,235.5781 Q303.6875,235.5781 303,236.6563 Q302.3125,237.7188 302.3125,239.8125 Q302.3125,241.9063 303,242.9844 Q303.6875,244.0469 305.0313,244.0469 Q305.6563,244.0469 306.25,243.7813 Q306.8438,243.5 307.4688,242.9219 L307.4688,245.6406 Z "/><text fill="#000000" font-family="sans-serif" font-size="12" lengthAdjust="spacingAndGlyphs" textLength="104" x="318.5" y="244.1543">VeinActiveObject</text><line style="stroke: #A80036; stroke-width: 1.5;" x1="290.5" x2="424.5" y1="256" y2="256"/><line style="stroke: #A80036; stroke-width: 1.5;" x1="290.5" x2="424.5" y1="264" y2="264"/><!--link VeinNode to VeinModule--><path d="M264.44,67.01 C253.2,82.89 240.1,101.41 230,115.68 " fill="none" id="VeinNode-VeinModule" style="stroke: #A80036; stroke-width: 1.0;"/><polygon fill="#A80036" points="272.23,56,265.4985,58.5858,265.2964,65.7941,272.0279,63.2083,272.23,56" style="stroke: #A80036; stroke-width: 1.0;"/><text fill="#000000" font-family="sans-serif" font-size="13" lengthAdjust="spacingAndGlyphs" textLength="8" x="259.0358" y="76.1558">1</text><text fill="#000000" font-family="sans-serif" font-size="13" lengthAdjust="spacingAndGlyphs" textLength="36" x="193.6344" y="105.007">many</text><!--link VeinNode to VeinSubsystem--><path d="M312.88,67.01 C324.27,82.89 337.55,101.41 347.78,115.68 " fill="none" id="VeinNode-VeinSubsystem" style="stroke: #A80036; stroke-width: 1.0;"/><polygon fill="#A80036" points="304.99,56,305.2427,63.2067,311.9923,65.7452,311.7395,58.5385,304.99,56" style="stroke: #A80036; stroke-width: 1.0;"/><text fill="#000000" font-family="sans-serif" font-size="13" lengthAdjust="spacingAndGlyphs" textLength="8" x="300.1906" y="76.1558">1</text><text fill="#000000" font-family="sans-serif" font-size="13" lengthAdjust="spacingAndGlyphs" textLength="36" x="303.317" y="105.007">many</text><!--link VeinModule to VeinComponent--><path d="M172.23,171.81 C150.06,188.36 123.16,208.44 102.74,223.68 " fill="none" id="VeinModule-VeinComponent" style="stroke: #A80036; stroke-width: 1.0;"/><polygon fill="#A80036" points="182.69,164,175.4891,164.3826,173.0726,171.1768,180.2736,170.7942,182.69,164" style="stroke: #A80036; stroke-width: 1.0;"/><text fill="#000000" font-family="sans-serif" font-size="13" lengthAdjust="spacingAndGlyphs" textLength="8" x="165.7699" y="184.1558">1</text><text fill="#000000" font-family="sans-serif" font-size="13" lengthAdjust="spacingAndGlyphs" textLength="36" x="69.9673" y="213.007">many</text><!--link VeinModule to VeinRpc--><path d="M213.5,177.34 C213.5,192.68 213.5,210.1 213.5,223.68 " fill="none" id="VeinModule-VeinRpc" style="stroke: #A80036; stroke-width: 1.0;"/><polygon fill="#A80036" points="213.5,164,209.5,170,213.5,176,217.5,170,213.5,164" style="stroke: #A80036; stroke-width: 1.0;"/><text fill="#000000" font-family="sans-serif" font-size="13" lengthAdjust="spacingAndGlyphs" textLength="8" x="204.475" y="184.1558">1</text><text fill="#000000" font-family="sans-serif" font-size="13" lengthAdjust="spacingAndGlyphs" textLength="36" x="173.1125" y="213.007">many</text><!--link VeinModule to VeinActiveObject--><path d="M255.35,171.81 C277.84,188.36 305.11,208.44 325.82,223.68 " fill="none" id="VeinModule-VeinActiveObject" style="stroke: #A80036; stroke-width: 1.0;"/><polygon fill="#A80036" points="244.75,164,247.2142,170.777,254.4176,171.1089,251.9535,164.3319,244.75,164" style="stroke: #A80036; stroke-width: 1.0;"/><text fill="#000000" font-family="sans-serif" font-size="13" lengthAdjust="spacingAndGlyphs" textLength="8" x="243.7328" y="184.1558">1</text><text fill="#000000" font-family="sans-serif" font-size="13" lengthAdjust="spacingAndGlyphs" textLength="36" x="277.7105" y="213.007">many</text><!--
@startuml OwnerShip
skinparamlocked backgroundColor darkgrey

VeinNode "1" *- - "many" VeinModule 
VeinNode "1" *- - "many" VeinSubsystem

VeinModule "1" *- - "many" VeinComponent
VeinModule "1" *- - "many" VeinRpc
VeinModule "1" *- - "many" VeinActiveObject

@enduml

PlantUML version 1.2019.01(Sat Feb 09 16:32:04 CET 2019)
(LGPL source distribution)
Java Runtime: OpenJDK Runtime Environment
JVM: OpenJDK 64-Bit Server VM
Java Version: 1.8.0_265-b01
Operating System: Linux
OS Version: 5.7.14-200.fc32.x86_64
Default Encoding: UTF-8
Language: en
Country: US
--></g></svg>