<?xml version="1.0" encoding="UTF-8" standalone="no"?><svg xmlns="http://www.w3.org/2000/svg" xmlns:xlink="http://www.w3.org/1999/xlink" contentScriptType="application/ecmascript" contentStyleType="text/css" height="391px" preserveAspectRatio="none" style="width:266px;height:391px;background:#A9A9A9;" version="1.1" viewBox="0 0 266 391" width="266px" zoomAndPan="magnify"><defs><filter height="300%" id="f7mwqmyvq5u9o" width="300%" x="-1" y="-1"><feGaussianBlur result="blurOut" stdDeviation="2.0"/><feColorMatrix in="blurOut" result="blurOut2" type="matrix" values="0 0 0 0 0 0 0 0 0 0 0 0 0 0 0 0 0 0 .4 0"/><feOffset dx="4.0" dy="4.0" in="blurOut2" result="blurOut3"/><feBlend in="SourceGraphic" in2="blurOut3" mode="normal"/></filter></defs><g><!--class Node--><rect fill="#FEFECE" filter="url(#f7mwqmyvq5u9o)" height="48" id="Node" style="stroke: #A80036; stroke-width: 1.5;" width="65" x="71.5" y="116"/><ellipse cx="86.5" cy="132" fill="#ADD1B2" rx="11" ry="11" style="stroke: #A80036; stroke-width: 1.0;"/><path d="M89.4688,137.6406 Q88.8906,137.9375 88.25,138.0781 Q87.6094,138.2344 86.9063,138.2344 Q84.4063,138.2344 83.0781,136.5938 Q81.7656,134.9375 81.7656,131.8125 Q81.7656,128.6875 83.0781,127.0313 Q84.4063,125.375 86.9063,125.375 Q87.6094,125.375 88.25,125.5313 Q88.9063,125.6875 89.4688,125.9844 L89.4688,128.7031 Q88.8438,128.125 88.25,127.8594 Q87.6563,127.5781 87.0313,127.5781 Q85.6875,127.5781 85,128.6563 Q84.3125,129.7188 84.3125,131.8125 Q84.3125,133.9063 85,134.9844 Q85.6875,136.0469 87.0313,136.0469 Q87.6563,136.0469 88.25,135.7813 Q88.8438,135.5 89.4688,134.9219 L89.4688,137.6406 Z "/><text fill="#000000" font-family="sans-serif" font-size="12" lengthAdjust="spacingAndGlyphs" textLength="33" x="100.5" y="136.1543">Node</text><line style="stroke: #A80036; stroke-width: 1.5;" x1="72.5" x2="135.5" y1="148" y2="148"/><line style="stroke: #A80036; stroke-width: 1.5;" x1="72.5" x2="135.5" y1="156" y2="156"/><!--class VeinTree--><rect fill="#FEFECE" filter="url(#f7mwqmyvq5u9o)" height="48" id="VeinTree" style="stroke: #A80036; stroke-width: 1.5;" width="87" x="60.5" y="8"/><ellipse cx="75.5" cy="24" fill="#ADD1B2" rx="11" ry="11" style="stroke: #A80036; stroke-width: 1.0;"/><path d="M78.4688,29.6406 Q77.8906,29.9375 77.25,30.0781 Q76.6094,30.2344 75.9063,30.2344 Q73.4063,30.2344 72.0781,28.5938 Q70.7656,26.9375 70.7656,23.8125 Q70.7656,20.6875 72.0781,19.0313 Q73.4063,17.375 75.9063,17.375 Q76.6094,17.375 77.25,17.5313 Q77.9063,17.6875 78.4688,17.9844 L78.4688,20.7031 Q77.8438,20.125 77.25,19.8594 Q76.6563,19.5781 76.0313,19.5781 Q74.6875,19.5781 74,20.6563 Q73.3125,21.7188 73.3125,23.8125 Q73.3125,25.9063 74,26.9844 Q74.6875,28.0469 76.0313,28.0469 Q76.6563,28.0469 77.25,27.7813 Q77.8438,27.5 78.4688,26.9219 L78.4688,29.6406 Z "/><text fill="#000000" font-family="sans-serif" font-size="12" lengthAdjust="spacingAndGlyphs" textLength="55" x="89.5" y="28.1543">VeinTree</text><line style="stroke: #A80036; stroke-width: 1.5;" x1="61.5" x2="146.5" y1="40" y2="40"/><line style="stroke: #A80036; stroke-width: 1.5;" x1="61.5" x2="146.5" y1="48" y2="48"/><!--class Subscription--><rect fill="#FEFECE" filter="url(#f7mwqmyvq5u9o)" height="48" id="Subscription" style="stroke: #A80036; stroke-width: 1.5;" width="110" x="6" y="332"/><ellipse cx="21" cy="348" fill="#ADD1B2" rx="11" ry="11" style="stroke: #A80036; stroke-width: 1.0;"/><path d="M23.9688,353.6406 Q23.3906,353.9375 22.75,354.0781 Q22.1094,354.2344 21.4063,354.2344 Q18.9063,354.2344 17.5781,352.5938 Q16.2656,350.9375 16.2656,347.8125 Q16.2656,344.6875 17.5781,343.0313 Q18.9063,341.375 21.4063,341.375 Q22.1094,341.375 22.75,341.5313 Q23.4063,341.6875 23.9688,341.9844 L23.9688,344.7031 Q23.3438,344.125 22.75,343.8594 Q22.1563,343.5781 21.5313,343.5781 Q20.1875,343.5781 19.5,344.6563 Q18.8125,345.7188 18.8125,347.8125 Q18.8125,349.9063 19.5,350.9844 Q20.1875,352.0469 21.5313,352.0469 Q22.1563,352.0469 22.75,351.7813 Q23.3438,351.5 23.9688,350.9219 L23.9688,353.6406 Z "/><text fill="#000000" font-family="sans-serif" font-size="12" lengthAdjust="spacingAndGlyphs" textLength="78" x="35" y="352.1543">Subscription</text><line style="stroke: #A80036; stroke-width: 1.5;" x1="7" x2="115" y1="364" y2="364"/><line style="stroke: #A80036; stroke-width: 1.5;" x1="7" x2="115" y1="372" y2="372"/><!--class Entity--><rect fill="#FEFECE" filter="url(#f7mwqmyvq5u9o)" height="48" id="Entity" style="stroke: #A80036; stroke-width: 1.5;" width="67" x="114.5" y="224"/><ellipse cx="129.5" cy="240" fill="#ADD1B2" rx="11" ry="11" style="stroke: #A80036; stroke-width: 1.0;"/><path d="M132.4688,245.6406 Q131.8906,245.9375 131.25,246.0781 Q130.6094,246.2344 129.9063,246.2344 Q127.4063,246.2344 126.0781,244.5938 Q124.7656,242.9375 124.7656,239.8125 Q124.7656,236.6875 126.0781,235.0313 Q127.4063,233.375 129.9063,233.375 Q130.6094,233.375 131.25,233.5313 Q131.9063,233.6875 132.4688,233.9844 L132.4688,236.7031 Q131.8438,236.125 131.25,235.8594 Q130.6563,235.5781 130.0313,235.5781 Q128.6875,235.5781 128,236.6563 Q127.3125,237.7188 127.3125,239.8125 Q127.3125,241.9063 128,242.9844 Q128.6875,244.0469 130.0313,244.0469 Q130.6563,244.0469 131.25,243.7813 Q131.8438,243.5 132.4688,242.9219 L132.4688,245.6406 Z "/><text fill="#000000" font-family="sans-serif" font-size="12" lengthAdjust="spacingAndGlyphs" textLength="35" x="143.5" y="244.1543">Entity</text><line style="stroke: #A80036; stroke-width: 1.5;" x1="115.5" x2="180.5" y1="256" y2="256"/><line style="stroke: #A80036; stroke-width: 1.5;" x1="115.5" x2="180.5" y1="264" y2="264"/><!--class Component--><rect fill="#FEFECE" filter="url(#f7mwqmyvq5u9o)" height="48" id="Component" style="stroke: #A80036; stroke-width: 1.5;" width="104" x="151" y="332"/><ellipse cx="166" cy="348" fill="#ADD1B2" rx="11" ry="11" style="stroke: #A80036; stroke-width: 1.0;"/><path d="M168.9688,353.6406 Q168.3906,353.9375 167.75,354.0781 Q167.1094,354.2344 166.4063,354.2344 Q163.9063,354.2344 162.5781,352.5938 Q161.2656,350.9375 161.2656,347.8125 Q161.2656,344.6875 162.5781,343.0313 Q163.9063,341.375 166.4063,341.375 Q167.1094,341.375 167.75,341.5313 Q168.4063,341.6875 168.9688,341.9844 L168.9688,344.7031 Q168.3438,344.125 167.75,343.8594 Q167.1563,343.5781 166.5313,343.5781 Q165.1875,343.5781 164.5,344.6563 Q163.8125,345.7188 163.8125,347.8125 Q163.8125,349.9063 164.5,350.9844 Q165.1875,352.0469 166.5313,352.0469 Q167.1563,352.0469 167.75,351.7813 Q168.3438,351.5 168.9688,350.9219 L168.9688,353.6406 Z "/><text fill="#000000" font-family="sans-serif" font-size="12" lengthAdjust="spacingAndGlyphs" textLength="72" x="180" y="352.1543">Component</text><line style="stroke: #A80036; stroke-width: 1.5;" x1="152" x2="254" y1="364" y2="364"/><line style="stroke: #A80036; stroke-width: 1.5;" x1="152" x2="254" y1="372" y2="372"/><!--link VeinTree to Node--><path d="M104,56 C104,72 104,93.45 104,110.53 " fill="none" id="VeinTree-Node" style="stroke: #A80036; stroke-width: 1.0;"/><polygon fill="#A80036" points="104,115.68,108,106.68,104,110.68,100,106.68,104,115.68" style="stroke: #A80036; stroke-width: 1.0;"/><text fill="#000000" font-family="sans-serif" font-size="13" lengthAdjust="spacingAndGlyphs" textLength="8" x="94.975" y="76.1558">1</text><text fill="#000000" font-family="sans-serif" font-size="13" lengthAdjust="spacingAndGlyphs" textLength="36" x="63.6125" y="105.007">many</text><!--link Node to Subscription--><path d="M99.32,164.31 C91.37,203.87 75.27,283.99 66.69,326.7 " fill="none" id="Node-Subscription" style="stroke: #A80036; stroke-width: 1.0;"/><polygon fill="#A80036" points="65.68,331.72,71.3764,323.6856,66.6661,326.8182,63.5335,322.1079,65.68,331.72" style="stroke: #A80036; stroke-width: 1.0;"/><text fill="#000000" font-family="sans-serif" font-size="13" lengthAdjust="spacingAndGlyphs" textLength="8" x="89.2042" y="184.1468">1</text><text fill="#000000" font-family="sans-serif" font-size="13" lengthAdjust="spacingAndGlyphs" textLength="36" x="26.4333" y="321.0567">many</text><!--link Node to Entity--><path d="M113.55,164 C120.25,180.14 129.24,201.82 136.36,218.97 " fill="none" id="Node-Entity" style="stroke: #A80036; stroke-width: 1.0;"/><polygon fill="#A80036" points="138.32,223.68,138.5659,213.8342,136.404,219.0617,131.1766,216.8998,138.32,223.68" style="stroke: #A80036; stroke-width: 1.0;"/><text fill="#000000" font-family="sans-serif" font-size="13" lengthAdjust="spacingAndGlyphs" textLength="8" x="106.9722" y="184.1558">1</text><text fill="#000000" font-family="sans-serif" font-size="13" lengthAdjust="spacingAndGlyphs" textLength="36" x="95.573" y="213.007">many</text><!--link Entity to Component--><path d="M159.93,272 C168.31,288.14 179.56,309.82 188.46,326.97 " fill="none" id="Entity-Component" style="stroke: #A80036; stroke-width: 1.0;"/><polygon fill="#A80036" points="190.9,331.68,190.2897,321.8501,188.5901,327.2456,183.1946,325.5459,190.9,331.68" style="stroke: #A80036; stroke-width: 1.0;"/><text fill="#000000" font-family="sans-serif" font-size="13" lengthAdjust="spacingAndGlyphs" textLength="8" x="153.9621" y="292.1558">1</text><text fill="#000000" font-family="sans-serif" font-size="13" lengthAdjust="spacingAndGlyphs" textLength="36" x="147.5631" y="321.007">many</text><!--link Entity to Subscription--><path d="M129.12,272 C115.76,288.28 97.78,310.19 83.65,327.41 " fill="none" id="Entity-Subscription" style="stroke: #A80036; stroke-width: 1.0;"/><polygon fill="#A80036" points="80.14,331.68,88.9376,327.2526,83.3085,327.8121,82.749,322.183,80.14,331.68" style="stroke: #A80036; stroke-width: 1.0;"/><text fill="#000000" font-family="sans-serif" font-size="13" lengthAdjust="spacingAndGlyphs" textLength="8" x="115.257" y="292.1558">1</text><text fill="#000000" font-family="sans-serif" font-size="13" lengthAdjust="spacingAndGlyphs" textLength="36" x="89.1929" y="321.007">many</text><!--
@startuml SubEntTree
skinparamlocked backgroundColor darkgrey
class Node
VeinTree "1" - -> "many" Node
Node "1" - -> "many" Subscription
Node "1" - -> "many" Entity
Entity "1" - -> "many" Component
Entity "1" - -> "many" Subscription
@enduml

PlantUML version 1.2019.01(Sat Feb 09 16:32:04 CET 2019)
(LGPL source distribution)
Java Runtime: OpenJDK Runtime Environment
JVM: OpenJDK 64-Bit Server VM
Java Version: 1.8.0_265-b01
Operating System: Linux
OS Version: 5.7.14-200.fc32.x86_64
Default Encoding: UTF-8
Language: en
Country: US
--></g></svg>