<?xml version="1.0" encoding="UTF-8" standalone="no"?><svg xmlns="http://www.w3.org/2000/svg" xmlns:xlink="http://www.w3.org/1999/xlink" contentScriptType="application/ecmascript" contentStyleType="text/css" height="383px" preserveAspectRatio="none" style="width:325px;height:383px;background:#A9A9A9;" version="1.1" viewBox="0 0 325 383" width="325px" zoomAndPan="magnify"><defs><filter height="300%" id="f7svwtrrsvxrs" width="300%" x="-1" y="-1"><feGaussianBlur result="blurOut" stdDeviation="2.0"/><feColorMatrix in="blurOut" result="blurOut2" type="matrix" values="0 0 0 0 0 0 0 0 0 0 0 0 0 0 0 0 0 0 .4 0"/><feOffset dx="4.0" dy="4.0" in="blurOut2" result="blurOut3"/><feBlend in="SourceGraphic" in2="blurOut3" mode="normal"/></filter></defs><g><!--entity Module--><rect fill="#FEFECE" filter="url(#f7svwtrrsvxrs)" height="36.2969" style="stroke: #A80036; stroke-width: 1.5;" width="71" x="64.5" y="165"/><rect fill="#FEFECE" height="5" style="stroke: #A80036; stroke-width: 1.5;" width="10" x="59.5" y="170"/><rect fill="#FEFECE" height="5" style="stroke: #A80036; stroke-width: 1.5;" width="10" x="59.5" y="191.2969"/><text fill="#000000" font-family="sans-serif" font-size="14" lengthAdjust="spacingAndGlyphs" textLength="51" x="74.5" y="187.9951">Module</text><!--entity DspInterface--><ellipse cx="100" cy="26" fill="#FEFECE" filter="url(#f7svwtrrsvxrs)" rx="8" ry="8" style="stroke: #A80036; stroke-width: 2.0;"/><text fill="#000000" font-family="sans-serif" font-size="14" lengthAdjust="spacingAndGlyphs" textLength="88" x="56" y="55.9951">DspInterface</text><!--entity dspServer--><rect fill="#FEFECE" filter="url(#f7svwtrrsvxrs)" height="36.2969" style="stroke: #A80036; stroke-width: 1.5;" width="90" x="144" y="8"/><rect fill="#FEFECE" height="5" style="stroke: #A80036; stroke-width: 1.5;" width="10" x="139" y="13"/><rect fill="#FEFECE" height="5" style="stroke: #A80036; stroke-width: 1.5;" width="10" x="139" y="34.2969"/><text fill="#000000" font-family="sans-serif" font-size="14" lengthAdjust="spacingAndGlyphs" textLength="70" x="154" y="30.9951">dspServer</text><!--entity PcbInterface--><ellipse cx="180" cy="183" fill="#FEFECE" filter="url(#f7svwtrrsvxrs)" rx="8" ry="8" style="stroke: #A80036; stroke-width: 2.0;"/><text fill="#000000" font-family="sans-serif" font-size="14" lengthAdjust="spacingAndGlyphs" textLength="86" x="137" y="212.9951">PcbInterface</text><!--entity pcbServer--><rect fill="#FEFECE" filter="url(#f7svwtrrsvxrs)" height="36.2969" style="stroke: #A80036; stroke-width: 1.5;" width="90" x="224" y="165"/><rect fill="#FEFECE" height="5" style="stroke: #A80036; stroke-width: 1.5;" width="10" x="219" y="170"/><rect fill="#FEFECE" height="5" style="stroke: #A80036; stroke-width: 1.5;" width="10" x="219" y="191.2969"/><text fill="#000000" font-family="sans-serif" font-size="14" lengthAdjust="spacingAndGlyphs" textLength="70" x="234" y="187.9951">pcbServer</text><!--entity RmInterface--><ellipse cx="100" cy="340" fill="#FEFECE" filter="url(#f7svwtrrsvxrs)" rx="8" ry="8" style="stroke: #A80036; stroke-width: 2.0;"/><text fill="#000000" font-family="sans-serif" font-size="14" lengthAdjust="spacingAndGlyphs" textLength="83" x="58.5" y="369.9951">RmInterface</text><!--entity resourcenManager--><rect fill="#FEFECE" filter="url(#f7svwtrrsvxrs)" height="36.2969" style="stroke: #A80036; stroke-width: 1.5;" width="151" x="144.5" y="322"/><rect fill="#FEFECE" height="5" style="stroke: #A80036; stroke-width: 1.5;" width="10" x="139.5" y="327"/><rect fill="#FEFECE" height="5" style="stroke: #A80036; stroke-width: 1.5;" width="10" x="139.5" y="348.2969"/><text fill="#000000" font-family="sans-serif" font-size="14" lengthAdjust="spacingAndGlyphs" textLength="131" x="154.5" y="344.9951">resourcenManager</text><!--entity vein--><ellipse cx="20" cy="183" fill="#FEFECE" filter="url(#f7svwtrrsvxrs)" rx="8" ry="8" style="stroke: #A80036; stroke-width: 2.0;"/><text fill="#000000" font-family="sans-serif" font-size="14" lengthAdjust="spacingAndGlyphs" textLength="28" x="6" y="212.9951">vein</text><!--link DspInterface to dspServer--><path d="M109.04,26 C120.6,26 132.15,26 143.71,26 " fill="none" id="DspInterface-dspServer" style="stroke: #A80036; stroke-width: 1.0;"/><!--link PcbInterface to pcbServer--><path d="M189.04,183 C200.6,183 212.15,183 223.71,183 " fill="none" id="PcbInterface-pcbServer" style="stroke: #A80036; stroke-width: 1.0;"/><!--link RmInterface to resourcenManager--><path d="M109.38,340 C121.04,340 132.71,340 144.38,340 " fill="none" id="RmInterface-resourcenManager" style="stroke: #A80036; stroke-width: 1.0;"/><!--link DspInterface to Module--><path d="M100,40.46 C100,68.64 100,133.82 100,164.91 " fill="none" id="DspInterface-Module" style="stroke: #A80036; stroke-width: 1.0; stroke-dasharray: 7.0,7.0;"/><polygon fill="#A80036" points="100,35.33,96,44.33,100,40.33,104,44.33,100,35.33" style="stroke: #A80036; stroke-width: 1.0;"/><!--link Module to PcbInterface--><path d="M135.62,183 C145.66,183 155.7,183 165.74,183 " fill="none" id="Module-PcbInterface" style="stroke: #A80036; stroke-width: 1.0; stroke-dasharray: 7.0,7.0;"/><polygon fill="#A80036" points="170.99,183,161.99,179,165.99,183,161.99,187,170.99,183" style="stroke: #A80036; stroke-width: 1.0;"/><!--link Module to RmInterface--><path d="M100,201.18 C100,232.36 100,297.64 100,325.71 " fill="none" id="Module-RmInterface" style="stroke: #A80036; stroke-width: 1.0; stroke-dasharray: 7.0,7.0;"/><polygon fill="#A80036" points="100,330.8,104,321.8,100,325.8,96,321.8,100,330.8" style="stroke: #A80036; stroke-width: 1.0;"/><!--link vein to Module--><path d="M34.29,183 C44.28,183 54.26,183 64.25,183 " fill="none" id="vein-Module" style="stroke: #A80036; stroke-width: 1.0; stroke-dasharray: 7.0,7.0;"/><polygon fill="#A80036" points="29.06,183,38.06,187,34.06,183,38.06,179,29.06,183" style="stroke: #A80036; stroke-width: 1.0;"/><!--
@startuml genericModule
skinparamlocked backgroundColor darkgrey

[Module]
DspInterface - [dspServer]
PcbInterface - [pcbServer]
RmInterface - [resourcenManager]

[Module] -u..> DspInterface
[Module] -r..> PcbInterface
[Module] -d..> RmInterface
[Module] -l..> vein

@enduml

PlantUML version 1.2019.01(Sat Feb 09 16:32:04 CET 2019)
(LGPL source distribution)
Java Runtime: OpenJDK Runtime Environment
JVM: OpenJDK 64-Bit Server VM
Java Version: 1.8.0_265-b01
Operating System: Linux
OS Version: 5.7.14-200.fc32.x86_64
Default Encoding: UTF-8
Language: en
Country: US
--></g></svg>