<?xml version="1.0" encoding="UTF-8" standalone="no"?><svg xmlns="http://www.w3.org/2000/svg" xmlns:xlink="http://www.w3.org/1999/xlink" contentScriptType="application/ecmascript" contentStyleType="text/css" height="552px" preserveAspectRatio="none" style="width:355px;height:552px;background:#A9A9A9;" version="1.1" viewBox="0 0 355 552" width="355px" zoomAndPan="magnify"><defs><filter height="300%" id="f13mfr4ivosvbp" width="300%" x="-1" y="-1"><feGaussianBlur result="blurOut" stdDeviation="2.0"/><feColorMatrix in="blurOut" result="blurOut2" type="matrix" values="0 0 0 0 0 0 0 0 0 0 0 0 0 0 0 0 0 0 .4 0"/><feOffset dx="4.0" dy="4.0" in="blurOut2" result="blurOut3"/><feBlend in="SourceGraphic" in2="blurOut3" mode="normal"/></filter></defs><g><!--entity FFTModule--><rect fill="#FEFECE" filter="url(#f13mfr4ivosvbp)" height="36.2969" style="stroke: #A80036; stroke-width: 1.5;" width="96" x="19.5" y="505"/><rect fill="#FEFECE" height="5" style="stroke: #A80036; stroke-width: 1.5;" width="10" x="14.5" y="510"/><rect fill="#FEFECE" height="5" style="stroke: #A80036; stroke-width: 1.5;" width="10" x="14.5" y="531.2969"/><text fill="#000000" font-family="sans-serif" font-size="14" lengthAdjust="spacingAndGlyphs" textLength="76" x="29.5" y="527.9951">FFTModule</text><!--entity Power3Module--><rect fill="#FEFECE" filter="url(#f13mfr4ivosvbp)" height="36.2969" style="stroke: #A80036; stroke-width: 1.5;" width="123" x="205" y="505"/><rect fill="#FEFECE" height="5" style="stroke: #A80036; stroke-width: 1.5;" width="10" x="200" y="510"/><rect fill="#FEFECE" height="5" style="stroke: #A80036; stroke-width: 1.5;" width="10" x="200" y="531.2969"/><text fill="#000000" font-family="sans-serif" font-size="14" lengthAdjust="spacingAndGlyphs" textLength="103" x="215" y="527.9951">Power3Module</text><!--entity Power1Module--><rect fill="#FEFECE" filter="url(#f13mfr4ivosvbp)" height="36.2969" style="stroke: #A80036; stroke-width: 1.5;" width="123" x="6" y="292"/><rect fill="#FEFECE" height="5" style="stroke: #A80036; stroke-width: 1.5;" width="10" x="1" y="297"/><rect fill="#FEFECE" height="5" style="stroke: #A80036; stroke-width: 1.5;" width="10" x="1" y="318.2969"/><text fill="#000000" font-family="sans-serif" font-size="14" lengthAdjust="spacingAndGlyphs" textLength="103" x="16" y="314.9951">Power1Module</text><!--entity Sec1Module--><rect fill="#FEFECE" filter="url(#f13mfr4ivosvbp)" height="36.2969" style="stroke: #A80036; stroke-width: 1.5;" width="106" x="213.5" y="363"/><rect fill="#FEFECE" height="5" style="stroke: #A80036; stroke-width: 1.5;" width="10" x="208.5" y="368"/><rect fill="#FEFECE" height="5" style="stroke: #A80036; stroke-width: 1.5;" width="10" x="208.5" y="389.2969"/><text fill="#000000" font-family="sans-serif" font-size="14" lengthAdjust="spacingAndGlyphs" textLength="86" x="223.5" y="385.9951">Sec1Module</text><!--entity Power2Module--><rect fill="#FEFECE" filter="url(#f13mfr4ivosvbp)" height="36.2969" style="stroke: #A80036; stroke-width: 1.5;" width="123" x="6" y="363"/><rect fill="#FEFECE" height="5" style="stroke: #A80036; stroke-width: 1.5;" width="10" x="1" y="368"/><rect fill="#FEFECE" height="5" style="stroke: #A80036; stroke-width: 1.5;" width="10" x="1" y="389.2969"/><text fill="#000000" font-family="sans-serif" font-size="14" lengthAdjust="spacingAndGlyphs" textLength="103" x="16" y="385.9951">Power2Module</text><!--entity Sem1Module--><rect fill="#FEFECE" filter="url(#f13mfr4ivosvbp)" height="36.2969" style="stroke: #A80036; stroke-width: 1.5;" width="111" x="211" y="434"/><rect fill="#FEFECE" height="5" style="stroke: #A80036; stroke-width: 1.5;" width="10" x="206" y="439"/><rect fill="#FEFECE" height="5" style="stroke: #A80036; stroke-width: 1.5;" width="10" x="206" y="460.2969"/><text fill="#000000" font-family="sans-serif" font-size="14" lengthAdjust="spacingAndGlyphs" textLength="91" x="221" y="456.9951">Sem1Module</text><!--entity Spm1Module--><rect fill="#FEFECE" filter="url(#f13mfr4ivosvbp)" height="36.2969" style="stroke: #A80036; stroke-width: 1.5;" width="111" x="211" y="221"/><rect fill="#FEFECE" height="5" style="stroke: #A80036; stroke-width: 1.5;" width="10" x="206" y="226"/><rect fill="#FEFECE" height="5" style="stroke: #A80036; stroke-width: 1.5;" width="10" x="206" y="247.2969"/><text fill="#000000" font-family="sans-serif" font-size="14" lengthAdjust="spacingAndGlyphs" textLength="91" x="221" y="243.9951">Spm1Module</text><!--entity LambdaModule--><rect fill="#FEFECE" filter="url(#f13mfr4ivosvbp)" height="36.2969" style="stroke: #A80036; stroke-width: 1.5;" width="125" x="204" y="292"/><rect fill="#FEFECE" height="5" style="stroke: #A80036; stroke-width: 1.5;" width="10" x="199" y="297"/><rect fill="#FEFECE" height="5" style="stroke: #A80036; stroke-width: 1.5;" width="10" x="199" y="318.2969"/><text fill="#000000" font-family="sans-serif" font-size="14" lengthAdjust="spacingAndGlyphs" textLength="105" x="214" y="314.9951">LambdaModule</text><!--entity DFTModule--><rect fill="#FEFECE" filter="url(#f13mfr4ivosvbp)" height="36.2969" style="stroke: #A80036; stroke-width: 1.5;" width="99" x="18" y="115"/><rect fill="#FEFECE" height="5" style="stroke: #A80036; stroke-width: 1.5;" width="10" x="13" y="120"/><rect fill="#FEFECE" height="5" style="stroke: #A80036; stroke-width: 1.5;" width="10" x="13" y="141.2969"/><text fill="#000000" font-family="sans-serif" font-size="14" lengthAdjust="spacingAndGlyphs" textLength="79" x="28" y="137.9951">DFTModule</text><!--entity Burden1Module--><rect fill="#FEFECE" filter="url(#f13mfr4ivosvbp)" height="36.2969" style="stroke: #A80036; stroke-width: 1.5;" width="131" x="201" y="79"/><rect fill="#FEFECE" height="5" style="stroke: #A80036; stroke-width: 1.5;" width="10" x="196" y="84"/><rect fill="#FEFECE" height="5" style="stroke: #A80036; stroke-width: 1.5;" width="10" x="196" y="105.2969"/><text fill="#000000" font-family="sans-serif" font-size="14" lengthAdjust="spacingAndGlyphs" textLength="111" x="211" y="101.9951">Burden1Module</text><!--entity TransformerModule--><rect fill="#FEFECE" filter="url(#f13mfr4ivosvbp)" height="36.2969" style="stroke: #A80036; stroke-width: 1.5;" width="155" x="189" y="150"/><rect fill="#FEFECE" height="5" style="stroke: #A80036; stroke-width: 1.5;" width="10" x="184" y="155"/><rect fill="#FEFECE" height="5" style="stroke: #A80036; stroke-width: 1.5;" width="10" x="184" y="176.2969"/><text fill="#000000" font-family="sans-serif" font-size="14" lengthAdjust="spacingAndGlyphs" textLength="135" x="199" y="172.9951">TransformerModule</text><!--entity RMSModule--><rect fill="#FEFECE" filter="url(#f13mfr4ivosvbp)" height="36.2969" style="stroke: #A80036; stroke-width: 1.5;" width="102" x="16.5" y="8"/><rect fill="#FEFECE" height="5" style="stroke: #A80036; stroke-width: 1.5;" width="10" x="11.5" y="13"/><rect fill="#FEFECE" height="5" style="stroke: #A80036; stroke-width: 1.5;" width="10" x="11.5" y="34.2969"/><text fill="#000000" font-family="sans-serif" font-size="14" lengthAdjust="spacingAndGlyphs" textLength="82" x="26.5" y="30.9951">RMSModule</text><!--entity AdjustmentModule--><rect fill="#FEFECE" filter="url(#f13mfr4ivosvbp)" height="36.2969" style="stroke: #A80036; stroke-width: 1.5;" width="150" x="191.5" y="8"/><rect fill="#FEFECE" height="5" style="stroke: #A80036; stroke-width: 1.5;" width="10" x="186.5" y="13"/><rect fill="#FEFECE" height="5" style="stroke: #A80036; stroke-width: 1.5;" width="10" x="186.5" y="34.2969"/><text fill="#000000" font-family="sans-serif" font-size="14" lengthAdjust="spacingAndGlyphs" textLength="130" x="201.5" y="30.9951">AdjustmentModule</text><!--link FFTModule to Power3Module--><path d="M115.69,523 C140.87,523 172.26,523 199.79,523 " fill="none" id="FFTModule-Power3Module" style="stroke: #A80036; stroke-width: 1.0;"/><polygon fill="#A80036" points="204.89,523,195.89,519,199.89,523,195.89,527,204.89,523" style="stroke: #A80036; stroke-width: 1.0;"/><!--link Power1Module to Sec1Module--><path d="M118.47,328.01 C146.48,338.11 181.48,350.72 210.31,361.11 " fill="none" id="Power1Module-Sec1Module" style="stroke: #A80036; stroke-width: 1.0;"/><polygon fill="#A80036" points="215.24,362.89,208.1188,356.0864,210.5336,361.202,205.418,363.6167,215.24,362.89" style="stroke: #A80036; stroke-width: 1.0;"/><!--link Power2Module to Sec1Module--><path d="M129.21,381 C154.33,381 183.32,381 208.08,381 " fill="none" id="Power2Module-Sec1Module" style="stroke: #A80036; stroke-width: 1.0;"/><polygon fill="#A80036" points="213.3,381,204.3,377,208.3,381,204.3,385,213.3,381" style="stroke: #A80036; stroke-width: 1.0;"/><!--link Power1Module to Sem1Module--><path d="M103.44,328.12 C112.18,333.35 121.26,339.44 129,346 C160.52,372.71 156.09,392.03 189,417 C196.26,422.51 204.54,427.42 212.89,431.68 " fill="none" id="Power1Module-Sem1Module" style="stroke: #A80036; stroke-width: 1.0;"/><polygon fill="#A80036" points="217.54,433.99,211.2499,426.4115,213.0593,431.7711,207.6997,433.5806,217.54,433.99" style="stroke: #A80036; stroke-width: 1.0;"/><!--link Power2Module to Sem1Module--><path d="M118.47,399.01 C146.48,409.11 181.48,421.72 210.31,432.11 " fill="none" id="Power2Module-Sem1Module" style="stroke: #A80036; stroke-width: 1.0;"/><polygon fill="#A80036" points="215.24,433.89,208.1188,427.0864,210.5336,432.202,205.418,434.6167,215.24,433.89" style="stroke: #A80036; stroke-width: 1.0;"/><!--link Power1Module to Spm1Module--><path d="M118.47,291.99 C146.48,281.89 181.48,269.28 210.31,258.89 " fill="none" id="Power1Module-Spm1Module" style="stroke: #A80036; stroke-width: 1.0;"/><polygon fill="#A80036" points="215.24,257.11,205.418,256.3833,210.5336,258.798,208.1188,263.9136,215.24,257.11" style="stroke: #A80036; stroke-width: 1.0;"/><!--link Power2Module to Spm1Module--><path d="M104.44,362.99 C112.89,358.02 121.58,352.26 129,346 C160.85,319.16 155.9,299.29 189,274 C196.15,268.54 204.28,263.68 212.52,259.45 " fill="none" id="Power2Module-Spm1Module" style="stroke: #A80036; stroke-width: 1.0;"/><polygon fill="#A80036" points="217.1,257.16,207.2619,257.6198,212.6307,259.4018,210.8487,264.7706,217.1,257.16" style="stroke: #A80036; stroke-width: 1.0;"/><!--link Power1Module to LambdaModule--><path d="M129.21,310 C151.29,310 176.34,310 198.9,310 " fill="none" id="Power1Module-LambdaModule" style="stroke: #A80036; stroke-width: 1.0;"/><polygon fill="#A80036" points="203.97,310,194.97,306,198.97,310,194.97,314,203.97,310" style="stroke: #A80036; stroke-width: 1.0;"/><!--link Power2Module to LambdaModule--><path d="M118.47,362.99 C146.48,352.89 181.48,340.28 210.31,329.89 " fill="none" id="Power2Module-LambdaModule" style="stroke: #A80036; stroke-width: 1.0;"/><polygon fill="#A80036" points="215.24,328.11,205.418,327.3833,210.5336,329.798,208.1188,334.9136,215.24,328.11" style="stroke: #A80036; stroke-width: 1.0;"/><!--link DFTModule to Burden1Module--><path d="M117.2,124.1 C140.8,119.79 169.59,114.53 195.5,109.79 " fill="none" id="DFTModule-Burden1Module" style="stroke: #A80036; stroke-width: 1.0;"/><polygon fill="#A80036" points="200.64,108.85,191.0732,106.5098,195.7193,109.7369,192.4922,114.3829,200.64,108.85" style="stroke: #A80036; stroke-width: 1.0;"/><!--link DFTModule to TransformerModule--><path d="M117.2,141.65 C137.32,145.23 161.21,149.47 183.88,153.5 " fill="none" id="DFTModule-TransformerModule" style="stroke: #A80036; stroke-width: 1.0;"/><polygon fill="#A80036" points="189,154.41,180.8339,148.9041,184.0764,153.5394,179.441,156.7819,189,154.41" style="stroke: #A80036; stroke-width: 1.0;"/><!--link RMSModule to AdjustmentModule--><path d="M118.72,26 C139.18,26 163.32,26 186.06,26 " fill="none" id="RMSModule-AdjustmentModule" style="stroke: #A80036; stroke-width: 1.0;"/><polygon fill="#A80036" points="191.19,26,182.19,22,186.19,26,182.19,30,191.19,26" style="stroke: #A80036; stroke-width: 1.0;"/><!--
@startuml measComp
skinparamlocked backgroundColor darkgrey
left to right direction

[FFTModule] - -> [Power3Module]
[Power1Module] - -> [Sec1Module]
[Power2Module] - -> [Sec1Module]
[Power1Module] - -> [Sem1Module]
[Power2Module] - -> [Sem1Module]
[Power1Module] - -> [Spm1Module]
[Power2Module] - -> [Spm1Module]
[Power1Module] - -> [LambdaModule]
[Power2Module] - -> [LambdaModule]
[DFTModule] - -> [Burden1Module]
[DFTModule] - -> [TransformerModule]
[RMSModule] - -> [AdjustmentModule]

@enduml

PlantUML version 1.2019.01(Sat Feb 09 16:32:04 CET 2019)
(LGPL source distribution)
Java Runtime: OpenJDK Runtime Environment
JVM: OpenJDK 64-Bit Server VM
Java Version: 1.8.0_265-b01
Operating System: Linux
OS Version: 5.7.14-200.fc32.x86_64
Default Encoding: UTF-8
Language: en
Country: US
--></g></svg>