<?xml version="1.0" encoding="UTF-8" standalone="no"?><svg xmlns="http://www.w3.org/2000/svg" xmlns:xlink="http://www.w3.org/1999/xlink" contentScriptType="application/ecmascript" contentStyleType="text/css" height="339px" preserveAspectRatio="none" style="width:232px;height:339px;background:#A9A9A9;" version="1.1" viewBox="0 0 232 339" width="232px" zoomAndPan="magnify"><defs><filter height="300%" id="fvpvpivg91agt" width="300%" x="-1" y="-1"><feGaussianBlur result="blurOut" stdDeviation="2.0"/><feColorMatrix in="blurOut" result="blurOut2" type="matrix" values="0 0 0 0 0 0 0 0 0 0 0 0 0 0 0 0 0 0 .4 0"/><feOffset dx="4.0" dy="4.0" in="blurOut2" result="blurOut3"/><feBlend in="SourceGraphic" in2="blurOut3" mode="normal"/></filter></defs><g><!--entity dspServer--><rect fill="#FEFECE" filter="url(#fvpvpivg91agt)" height="36.2969" style="stroke: #A80036; stroke-width: 1.5;" width="90" x="92.76" y="8"/><rect fill="#FEFECE" height="5" style="stroke: #A80036; stroke-width: 1.5;" width="10" x="87.76" y="13"/><rect fill="#FEFECE" height="5" style="stroke: #A80036; stroke-width: 1.5;" width="10" x="87.76" y="34.2969"/><text fill="#000000" font-family="sans-serif" font-size="14" lengthAdjust="spacingAndGlyphs" textLength="70" x="102.76" y="30.9951">dspServer</text><!--entity zera-modulemanager--><rect fill="#FEFECE" filter="url(#fvpvpivg91agt)" height="36.2969" style="stroke: #A80036; stroke-width: 1.5;" width="168" x="53.76" y="221"/><rect fill="#FEFECE" height="5" style="stroke: #A80036; stroke-width: 1.5;" width="10" x="48.76" y="226"/><rect fill="#FEFECE" height="5" style="stroke: #A80036; stroke-width: 1.5;" width="10" x="48.76" y="247.2969"/><text fill="#000000" font-family="sans-serif" font-size="14" lengthAdjust="spacingAndGlyphs" textLength="148" x="63.76" y="243.9951">zera-modulemanager</text><!--entity pcbServer--><rect fill="#FEFECE" filter="url(#fvpvpivg91agt)" height="36.2969" style="stroke: #A80036; stroke-width: 1.5;" width="90" x="92.76" y="79"/><rect fill="#FEFECE" height="5" style="stroke: #A80036; stroke-width: 1.5;" width="10" x="87.76" y="84"/><rect fill="#FEFECE" height="5" style="stroke: #A80036; stroke-width: 1.5;" width="10" x="87.76" y="105.2969"/><text fill="#000000" font-family="sans-serif" font-size="14" lengthAdjust="spacingAndGlyphs" textLength="70" x="102.76" y="101.9951">pcbServer</text><!--entity resourcenManager--><rect fill="#FEFECE" filter="url(#fvpvpivg91agt)" height="36.2969" style="stroke: #A80036; stroke-width: 1.5;" width="151" x="62.26" y="150"/><rect fill="#FEFECE" height="5" style="stroke: #A80036; stroke-width: 1.5;" width="10" x="57.26" y="155"/><rect fill="#FEFECE" height="5" style="stroke: #A80036; stroke-width: 1.5;" width="10" x="57.26" y="176.2969"/><text fill="#000000" font-family="sans-serif" font-size="14" lengthAdjust="spacingAndGlyphs" textLength="131" x="72.26" y="172.9951">resourcenManager</text><!--entity vf-declarative-gui--><rect fill="#FEFECE" filter="url(#fvpvpivg91agt)" height="36.2969" style="stroke: #A80036; stroke-width: 1.5;" width="136" x="69.76" y="292"/><rect fill="#FEFECE" height="5" style="stroke: #A80036; stroke-width: 1.5;" width="10" x="64.76" y="297"/><rect fill="#FEFECE" height="5" style="stroke: #A80036; stroke-width: 1.5;" width="10" x="64.76" y="318.2969"/><text fill="#000000" font-family="sans-serif" font-size="14" lengthAdjust="spacingAndGlyphs" textLength="116" x="79.76" y="314.9951">vf-declarative-gui</text><!--link dspServer to zera-modulemanager--><path d="M92.64,33.7 C67.27,40.68 37.93,53.84 23.76,78.5 C0.08,119.74 0.08,144.26 23.76,185.5 C33.07,201.71 48.88,213.06 65.81,220.99 " fill="none" id="dspServer-zera-modulemanager" style="stroke: #A80036; stroke-width: 1.0;"/><!--link pcbServer to zera-modulemanager--><path d="M92.64,104.7 C67.27,111.68 37.93,124.84 23.76,149.5 C15.8,163.37 15.8,171.63 23.76,185.5 C33.07,201.71 48.88,213.06 65.81,220.99 " fill="none" id="pcbServer-zera-modulemanager" style="stroke: #A80036; stroke-width: 1.0;"/><!--link dspServer to resourcenManager--><path d="M92.64,33.7 C67.27,40.68 37.93,53.84 23.76,78.5 C15.8,92.37 15.8,100.63 23.76,114.5 C33.07,130.71 48.88,142.06 65.81,149.99 " fill="none" id="dspServer-resourcenManager" style="stroke: #A80036; stroke-width: 1.0;"/><!--link pcbServer to resourcenManager--><path d="M137.76,115.21 C137.76,126.8 137.76,138.38 137.76,149.97 " fill="none" id="pcbServer-resourcenManager" style="stroke: #A80036; stroke-width: 1.0;"/><!--link resourcenManager to zera-modulemanager--><path d="M137.76,186.21 C137.76,197.8 137.76,209.38 137.76,220.97 " fill="none" id="resourcenManager-zera-modulemanager" style="stroke: #A80036; stroke-width: 1.0;"/><!--link zera-modulemanager to vf-declarative-gui--><path d="M137.76,257.21 C137.76,268.8 137.76,280.38 137.76,291.97 " fill="none" id="zera-modulemanager-vf-declarative-gui" style="stroke: #A80036; stroke-width: 1.0;"/><!--
@startuml BasicVeinComponents
skinparamlocked backgroundColor darkgrey
left to right direction
[dspServer] - [zera-modulemanager]
[pcbServer] - [zera-modulemanager]
[dspServer] - [resourcenManager]
[pcbServer] - [resourcenManager]
[resourcenManager] - [zera-modulemanager]
[zera-modulemanager] - [vf-declarative-gui]
@enduml

PlantUML version 1.2019.01(Sat Feb 09 16:32:04 CET 2019)
(LGPL source distribution)
Java Runtime: OpenJDK Runtime Environment
JVM: OpenJDK 64-Bit Server VM
Java Version: 1.8.0_265-b01
Operating System: Linux
OS Version: 5.7.14-200.fc32.x86_64
Default Encoding: UTF-8
Language: en
Country: US
--></g></svg>