<?xml version="1.0" encoding="UTF-8" standalone="no"?><svg xmlns="http://www.w3.org/2000/svg" xmlns:xlink="http://www.w3.org/1999/xlink" contentScriptType="application/ecmascript" contentStyleType="text/css" height="1291px" preserveAspectRatio="none" style="width:891px;height:1291px;background:#A9A9A9;" version="1.1" viewBox="0 0 891 1291" width="891px" zoomAndPan="magnify"><defs><filter height="300%" id="fegrdsezmhtor" width="300%" x="-1" y="-1"><feGaussianBlur result="blurOut" stdDeviation="2.0"/><feColorMatrix in="blurOut" result="blurOut2" type="matrix" values="0 0 0 0 0 0 0 0 0 0 0 0 0 0 0 0 0 0 .4 0"/><feOffset dx="4.0" dy="4.0" in="blurOut2" result="blurOut3"/><feBlend in="SourceGraphic" in2="blurOut3" mode="normal"/></filter></defs><g><!--cluster zeramodulemanager--><polygon fill="#A9A9A9" filter="url(#fegrdsezmhtor)" points="278,682,446,682,453,704.2969,869,704.2969,869,1279,278,1279,278,682" style="stroke: #000000; stroke-width: 1.5;"/><line style="stroke: #000000; stroke-width: 1.5;" x1="278" x2="453" y1="704.2969" y2="704.2969"/><text fill="#000000" font-family="sans-serif" font-size="14" font-weight="bold" lengthAdjust="spacingAndGlyphs" textLength="162" x="282" y="696.9951">zeramodulemanager</text><!--cluster ActualValues--><rect fill="#A9A9A9" filter="url(#fegrdsezmhtor)" height="99" style="stroke: #000000; stroke-width: 1.5;" width="165" x="273" y="24"/><path d="M385,25 L385,33.2969 L375,43.2969 L273,43.2969 " fill="none" style="stroke: #000000; stroke-width: 1.5;"/><text fill="#000000" font-family="sans-serif" font-size="14" font-weight="bold" lengthAdjust="spacingAndGlyphs" textLength="102" x="276" y="37.9951">ActualValues</text><!--cluster HarmonicCurves--><rect fill="#A9A9A9" filter="url(#fegrdsezmhtor)" height="182" style="stroke: #000000; stroke-width: 1.5;" width="185" x="263" y="147"/><path d="M403,148 L403,156.2969 L393,166.2969 L263,166.2969 " fill="none" style="stroke: #000000; stroke-width: 1.5;"/><text fill="#000000" font-family="sans-serif" font-size="14" font-weight="bold" lengthAdjust="spacingAndGlyphs" textLength="130" x="266" y="160.9951">HarmonicCurves</text><!--cluster HarmoicPowerValues--><rect fill="#A9A9A9" filter="url(#fegrdsezmhtor)" height="99" style="stroke: #000000; stroke-width: 1.5;" width="184" x="264" y="353"/><path d="M442,354 L442,362.2969 L432,372.2969 L264,372.2969 " fill="none" style="stroke: #000000; stroke-width: 1.5;"/><text fill="#000000" font-family="sans-serif" font-size="14" font-weight="bold" lengthAdjust="spacingAndGlyphs" textLength="168" x="267" y="366.9951">HarmoicPowerValues</text><!--cluster ComparisonMeasurement--><rect fill="#A9A9A9" filter="url(#fegrdsezmhtor)" height="265" style="stroke: #000000; stroke-width: 1.5;" width="218" x="17" y="1014"/><path d="M229,1015 L229,1023.2969 L219,1033.2969 L17,1033.2969 " fill="none" style="stroke: #000000; stroke-width: 1.5;"/><text fill="#000000" font-family="sans-serif" font-size="14" font-weight="bold" lengthAdjust="spacingAndGlyphs" textLength="202" x="20" y="1027.9951">ComparisonMeasurement</text><!--cluster BurdenValues--><rect fill="#A9A9A9" filter="url(#fegrdsezmhtor)" height="182" style="stroke: #000000; stroke-width: 1.5;" width="177" x="267" y="476"/><path d="M387,477 L387,485.2969 L377,495.2969 L267,495.2969 " fill="none" style="stroke: #000000; stroke-width: 1.5;"/><text fill="#000000" font-family="sans-serif" font-size="14" font-weight="bold" lengthAdjust="spacingAndGlyphs" textLength="110" x="270" y="489.9951">BurdenValues</text><!--cluster TransformerValues--><rect fill="#A9A9A9" filter="url(#fegrdsezmhtor)" height="99" style="stroke: #000000; stroke-width: 1.5;" width="207" x="22" y="270"/><path d="M184,271 L184,279.2969 L174,289.2969 L22,289.2969 " fill="none" style="stroke: #000000; stroke-width: 1.5;"/><text fill="#000000" font-family="sans-serif" font-size="14" font-weight="bold" lengthAdjust="spacingAndGlyphs" textLength="152" x="25" y="283.9951">TransformerValues</text><!--cluster Info--><rect fill="#A9A9A9" filter="url(#fegrdsezmhtor)" height="99" style="stroke: #000000; stroke-width: 1.5;" width="196" x="27.5" y="147"/><path d="M67.5,148 L67.5,156.2969 L57.5,166.2969 L27.5,166.2969 " fill="none" style="stroke: #000000; stroke-width: 1.5;"/><text fill="#000000" font-family="sans-serif" font-size="14" font-weight="bold" lengthAdjust="spacingAndGlyphs" textLength="30" x="30.5" y="160.9951">Info</text><!--cluster Settings--><rect fill="#A9A9A9" filter="url(#fegrdsezmhtor)" height="99" style="stroke: #000000; stroke-width: 1.5;" width="170" x="40.5" y="24"/><path d="M115.5,25 L115.5,33.2969 L105.5,43.2969 L40.5,43.2969 " fill="none" style="stroke: #000000; stroke-width: 1.5;"/><text fill="#000000" font-family="sans-serif" font-size="14" font-weight="bold" lengthAdjust="spacingAndGlyphs" textLength="65" x="43.5" y="37.9951">Settings</text><!--class FFTModule--><rect fill="#FEFECE" filter="url(#fegrdsezmhtor)" height="48" id="FFTModule" style="stroke: #A80036; stroke-width: 1.5;" width="98" x="306.5" y="966"/><ellipse cx="321.5" cy="982" fill="#ADD1B2" rx="11" ry="11" style="stroke: #A80036; stroke-width: 1.0;"/><path d="M324.4688,987.6406 Q323.8906,987.9375 323.25,988.0781 Q322.6094,988.2344 321.9063,988.2344 Q319.4063,988.2344 318.0781,986.5938 Q316.7656,984.9375 316.7656,981.8125 Q316.7656,978.6875 318.0781,977.0313 Q319.4063,975.375 321.9063,975.375 Q322.6094,975.375 323.25,975.5313 Q323.9063,975.6875 324.4688,975.9844 L324.4688,978.7031 Q323.8438,978.125 323.25,977.8594 Q322.6563,977.5781 322.0313,977.5781 Q320.6875,977.5781 320,978.6563 Q319.3125,979.7188 319.3125,981.8125 Q319.3125,983.9063 320,984.9844 Q320.6875,986.0469 322.0313,986.0469 Q322.6563,986.0469 323.25,985.7813 Q323.8438,985.5 324.4688,984.9219 L324.4688,987.6406 Z "/><text fill="#000000" font-family="sans-serif" font-size="12" lengthAdjust="spacingAndGlyphs" textLength="66" x="335.5" y="986.1543">FFTModule</text><line style="stroke: #A80036; stroke-width: 1.5;" x1="307.5" x2="403.5" y1="998" y2="998"/><line style="stroke: #A80036; stroke-width: 1.5;" x1="307.5" x2="403.5" y1="1006" y2="1006"/><!--class Power3Module--><rect fill="#FEFECE" filter="url(#fegrdsezmhtor)" height="48" id="Power3Module" style="stroke: #A80036; stroke-width: 1.5;" width="123" x="294" y="883"/><ellipse cx="309" cy="899" fill="#ADD1B2" rx="11" ry="11" style="stroke: #A80036; stroke-width: 1.0;"/><path d="M311.9688,904.6406 Q311.3906,904.9375 310.75,905.0781 Q310.1094,905.2344 309.4063,905.2344 Q306.9063,905.2344 305.5781,903.5938 Q304.2656,901.9375 304.2656,898.8125 Q304.2656,895.6875 305.5781,894.0313 Q306.9063,892.375 309.4063,892.375 Q310.1094,892.375 310.75,892.5313 Q311.4063,892.6875 311.9688,892.9844 L311.9688,895.7031 Q311.3438,895.125 310.75,894.8594 Q310.1563,894.5781 309.5313,894.5781 Q308.1875,894.5781 307.5,895.6563 Q306.8125,896.7188 306.8125,898.8125 Q306.8125,900.9063 307.5,901.9844 Q308.1875,903.0469 309.5313,903.0469 Q310.1563,903.0469 310.75,902.7813 Q311.3438,902.5 311.9688,901.9219 L311.9688,904.6406 Z "/><text fill="#000000" font-family="sans-serif" font-size="12" lengthAdjust="spacingAndGlyphs" textLength="91" x="323" y="903.1543">Power3Module</text><line style="stroke: #A80036; stroke-width: 1.5;" x1="295" x2="416" y1="915" y2="915"/><line style="stroke: #A80036; stroke-width: 1.5;" x1="295" x2="416" y1="923" y2="923"/><!--class Power1Module--><rect fill="#FEFECE" filter="url(#fegrdsezmhtor)" height="48" id="Power1Module" style="stroke: #A80036; stroke-width: 1.5;" width="123" x="294" y="800"/><ellipse cx="309" cy="816" fill="#ADD1B2" rx="11" ry="11" style="stroke: #A80036; stroke-width: 1.0;"/><path d="M311.9688,821.6406 Q311.3906,821.9375 310.75,822.0781 Q310.1094,822.2344 309.4063,822.2344 Q306.9063,822.2344 305.5781,820.5938 Q304.2656,818.9375 304.2656,815.8125 Q304.2656,812.6875 305.5781,811.0313 Q306.9063,809.375 309.4063,809.375 Q310.1094,809.375 310.75,809.5313 Q311.4063,809.6875 311.9688,809.9844 L311.9688,812.7031 Q311.3438,812.125 310.75,811.8594 Q310.1563,811.5781 309.5313,811.5781 Q308.1875,811.5781 307.5,812.6563 Q306.8125,813.7188 306.8125,815.8125 Q306.8125,817.9063 307.5,818.9844 Q308.1875,820.0469 309.5313,820.0469 Q310.1563,820.0469 310.75,819.7813 Q311.3438,819.5 311.9688,818.9219 L311.9688,821.6406 Z "/><text fill="#000000" font-family="sans-serif" font-size="12" lengthAdjust="spacingAndGlyphs" textLength="91" x="323" y="820.1543">Power1Module</text><line style="stroke: #A80036; stroke-width: 1.5;" x1="295" x2="416" y1="832" y2="832"/><line style="stroke: #A80036; stroke-width: 1.5;" x1="295" x2="416" y1="840" y2="840"/><!--class Power2Module--><rect fill="#FEFECE" filter="url(#fegrdsezmhtor)" height="48" id="Power2Module" style="stroke: #A80036; stroke-width: 1.5;" width="123" x="294" y="717"/><ellipse cx="309" cy="733" fill="#ADD1B2" rx="11" ry="11" style="stroke: #A80036; stroke-width: 1.0;"/><path d="M311.9688,738.6406 Q311.3906,738.9375 310.75,739.0781 Q310.1094,739.2344 309.4063,739.2344 Q306.9063,739.2344 305.5781,737.5938 Q304.2656,735.9375 304.2656,732.8125 Q304.2656,729.6875 305.5781,728.0313 Q306.9063,726.375 309.4063,726.375 Q310.1094,726.375 310.75,726.5313 Q311.4063,726.6875 311.9688,726.9844 L311.9688,729.7031 Q311.3438,729.125 310.75,728.8594 Q310.1563,728.5781 309.5313,728.5781 Q308.1875,728.5781 307.5,729.6563 Q306.8125,730.7188 306.8125,732.8125 Q306.8125,734.9063 307.5,735.9844 Q308.1875,737.0469 309.5313,737.0469 Q310.1563,737.0469 310.75,736.7813 Q311.3438,736.5 311.9688,735.9219 L311.9688,738.6406 Z "/><text fill="#000000" font-family="sans-serif" font-size="12" lengthAdjust="spacingAndGlyphs" textLength="91" x="323" y="737.1543">Power2Module</text><line style="stroke: #A80036; stroke-width: 1.5;" x1="295" x2="416" y1="749" y2="749"/><line style="stroke: #A80036; stroke-width: 1.5;" x1="295" x2="416" y1="757" y2="757"/><!--class LambdaModule--><rect fill="#FEFECE" filter="url(#fegrdsezmhtor)" height="48" id="LambdaModule" style="stroke: #A80036; stroke-width: 1.5;" width="126" x="505.5" y="966"/><ellipse cx="520.5" cy="982" fill="#ADD1B2" rx="11" ry="11" style="stroke: #A80036; stroke-width: 1.0;"/><path d="M523.4688,987.6406 Q522.8906,987.9375 522.25,988.0781 Q521.6094,988.2344 520.9063,988.2344 Q518.4063,988.2344 517.0781,986.5938 Q515.7656,984.9375 515.7656,981.8125 Q515.7656,978.6875 517.0781,977.0313 Q518.4063,975.375 520.9063,975.375 Q521.6094,975.375 522.25,975.5313 Q522.9063,975.6875 523.4688,975.9844 L523.4688,978.7031 Q522.8438,978.125 522.25,977.8594 Q521.6563,977.5781 521.0313,977.5781 Q519.6875,977.5781 519,978.6563 Q518.3125,979.7188 518.3125,981.8125 Q518.3125,983.9063 519,984.9844 Q519.6875,986.0469 521.0313,986.0469 Q521.6563,986.0469 522.25,985.7813 Q522.8438,985.5 523.4688,984.9219 L523.4688,987.6406 Z "/><text fill="#000000" font-family="sans-serif" font-size="12" lengthAdjust="spacingAndGlyphs" textLength="94" x="534.5" y="986.1543">LambdaModule</text><line style="stroke: #A80036; stroke-width: 1.5;" x1="506.5" x2="630.5" y1="998" y2="998"/><line style="stroke: #A80036; stroke-width: 1.5;" x1="506.5" x2="630.5" y1="1006" y2="1006"/><!--class DFTModule--><rect fill="#FEFECE" filter="url(#fegrdsezmhtor)" height="48" id="DFTModule" style="stroke: #A80036; stroke-width: 1.5;" width="100" x="518.5" y="883"/><ellipse cx="533.5" cy="899" fill="#ADD1B2" rx="11" ry="11" style="stroke: #A80036; stroke-width: 1.0;"/><path d="M536.4688,904.6406 Q535.8906,904.9375 535.25,905.0781 Q534.6094,905.2344 533.9063,905.2344 Q531.4063,905.2344 530.0781,903.5938 Q528.7656,901.9375 528.7656,898.8125 Q528.7656,895.6875 530.0781,894.0313 Q531.4063,892.375 533.9063,892.375 Q534.6094,892.375 535.25,892.5313 Q535.9063,892.6875 536.4688,892.9844 L536.4688,895.7031 Q535.8438,895.125 535.25,894.8594 Q534.6563,894.5781 534.0313,894.5781 Q532.6875,894.5781 532,895.6563 Q531.3125,896.7188 531.3125,898.8125 Q531.3125,900.9063 532,901.9844 Q532.6875,903.0469 534.0313,903.0469 Q534.6563,903.0469 535.25,902.7813 Q535.8438,902.5 536.4688,901.9219 L536.4688,904.6406 Z "/><text fill="#000000" font-family="sans-serif" font-size="12" lengthAdjust="spacingAndGlyphs" textLength="68" x="547.5" y="903.1543">DFTModule</text><line style="stroke: #A80036; stroke-width: 1.5;" x1="519.5" x2="617.5" y1="915" y2="915"/><line style="stroke: #A80036; stroke-width: 1.5;" x1="519.5" x2="617.5" y1="923" y2="923"/><!--class Burden1Module--><rect fill="#FEFECE" filter="url(#fegrdsezmhtor)" height="48" id="Burden1Module" style="stroke: #A80036; stroke-width: 1.5;" width="130" x="503.5" y="800"/><ellipse cx="518.5" cy="816" fill="#ADD1B2" rx="11" ry="11" style="stroke: #A80036; stroke-width: 1.0;"/><path d="M521.4688,821.6406 Q520.8906,821.9375 520.25,822.0781 Q519.6094,822.2344 518.9063,822.2344 Q516.4063,822.2344 515.0781,820.5938 Q513.7656,818.9375 513.7656,815.8125 Q513.7656,812.6875 515.0781,811.0313 Q516.4063,809.375 518.9063,809.375 Q519.6094,809.375 520.25,809.5313 Q520.9063,809.6875 521.4688,809.9844 L521.4688,812.7031 Q520.8438,812.125 520.25,811.8594 Q519.6563,811.5781 519.0313,811.5781 Q517.6875,811.5781 517,812.6563 Q516.3125,813.7188 516.3125,815.8125 Q516.3125,817.9063 517,818.9844 Q517.6875,820.0469 519.0313,820.0469 Q519.6563,820.0469 520.25,819.7813 Q520.8438,819.5 521.4688,818.9219 L521.4688,821.6406 Z "/><text fill="#000000" font-family="sans-serif" font-size="12" lengthAdjust="spacingAndGlyphs" textLength="98" x="532.5" y="820.1543">Burden1Module</text><line style="stroke: #A80036; stroke-width: 1.5;" x1="504.5" x2="632.5" y1="832" y2="832"/><line style="stroke: #A80036; stroke-width: 1.5;" x1="504.5" x2="632.5" y1="840" y2="840"/><!--class TransformerModule--><rect fill="#FEFECE" filter="url(#fegrdsezmhtor)" height="48" id="TransformerModule" style="stroke: #A80036; stroke-width: 1.5;" width="153" x="492" y="717"/><ellipse cx="507" cy="733" fill="#ADD1B2" rx="11" ry="11" style="stroke: #A80036; stroke-width: 1.0;"/><path d="M509.9688,738.6406 Q509.3906,738.9375 508.75,739.0781 Q508.1094,739.2344 507.4063,739.2344 Q504.9063,739.2344 503.5781,737.5938 Q502.2656,735.9375 502.2656,732.8125 Q502.2656,729.6875 503.5781,728.0313 Q504.9063,726.375 507.4063,726.375 Q508.1094,726.375 508.75,726.5313 Q509.4063,726.6875 509.9688,726.9844 L509.9688,729.7031 Q509.3438,729.125 508.75,728.8594 Q508.1563,728.5781 507.5313,728.5781 Q506.1875,728.5781 505.5,729.6563 Q504.8125,730.7188 504.8125,732.8125 Q504.8125,734.9063 505.5,735.9844 Q506.1875,737.0469 507.5313,737.0469 Q508.1563,737.0469 508.75,736.7813 Q509.3438,736.5 509.9688,735.9219 L509.9688,738.6406 Z "/><text fill="#000000" font-family="sans-serif" font-size="12" lengthAdjust="spacingAndGlyphs" textLength="121" x="521" y="737.1543">TransformerModule</text><line style="stroke: #A80036; stroke-width: 1.5;" x1="493" x2="644" y1="749" y2="749"/><line style="stroke: #A80036; stroke-width: 1.5;" x1="493" x2="644" y1="757" y2="757"/><!--class RMSModule--><rect fill="#FEFECE" filter="url(#fegrdsezmhtor)" height="48" id="RMSModule" style="stroke: #A80036; stroke-width: 1.5;" width="103" x="727.5" y="966"/><ellipse cx="742.5" cy="982" fill="#ADD1B2" rx="11" ry="11" style="stroke: #A80036; stroke-width: 1.0;"/><path d="M745.4688,987.6406 Q744.8906,987.9375 744.25,988.0781 Q743.6094,988.2344 742.9063,988.2344 Q740.4063,988.2344 739.0781,986.5938 Q737.7656,984.9375 737.7656,981.8125 Q737.7656,978.6875 739.0781,977.0313 Q740.4063,975.375 742.9063,975.375 Q743.6094,975.375 744.25,975.5313 Q744.9063,975.6875 745.4688,975.9844 L745.4688,978.7031 Q744.8438,978.125 744.25,977.8594 Q743.6563,977.5781 743.0313,977.5781 Q741.6875,977.5781 741,978.6563 Q740.3125,979.7188 740.3125,981.8125 Q740.3125,983.9063 741,984.9844 Q741.6875,986.0469 743.0313,986.0469 Q743.6563,986.0469 744.25,985.7813 Q744.8438,985.5 745.4688,984.9219 L745.4688,987.6406 Z "/><text fill="#000000" font-family="sans-serif" font-size="12" lengthAdjust="spacingAndGlyphs" textLength="71" x="756.5" y="986.1543">RMSModule</text><line style="stroke: #A80036; stroke-width: 1.5;" x1="728.5" x2="829.5" y1="998" y2="998"/><line style="stroke: #A80036; stroke-width: 1.5;" x1="728.5" x2="829.5" y1="1006" y2="1006"/><!--class AdjustmentModule--><rect fill="#FEFECE" filter="url(#fegrdsezmhtor)" height="48" id="AdjustmentModule" style="stroke: #A80036; stroke-width: 1.5;" width="148" x="705" y="883"/><ellipse cx="720" cy="899" fill="#ADD1B2" rx="11" ry="11" style="stroke: #A80036; stroke-width: 1.0;"/><path d="M722.9688,904.6406 Q722.3906,904.9375 721.75,905.0781 Q721.1094,905.2344 720.4063,905.2344 Q717.9063,905.2344 716.5781,903.5938 Q715.2656,901.9375 715.2656,898.8125 Q715.2656,895.6875 716.5781,894.0313 Q717.9063,892.375 720.4063,892.375 Q721.1094,892.375 721.75,892.5313 Q722.4063,892.6875 722.9688,892.9844 L722.9688,895.7031 Q722.3438,895.125 721.75,894.8594 Q721.1563,894.5781 720.5313,894.5781 Q719.1875,894.5781 718.5,895.6563 Q717.8125,896.7188 717.8125,898.8125 Q717.8125,900.9063 718.5,901.9844 Q719.1875,903.0469 720.5313,903.0469 Q721.1563,903.0469 721.75,902.7813 Q722.3438,902.5 722.9688,901.9219 L722.9688,904.6406 Z "/><text fill="#000000" font-family="sans-serif" font-size="12" lengthAdjust="spacingAndGlyphs" textLength="116" x="734" y="903.1543">AdjustmentModule</text><line style="stroke: #A80036; stroke-width: 1.5;" x1="706" x2="852" y1="915" y2="915"/><line style="stroke: #A80036; stroke-width: 1.5;" x1="706" x2="852" y1="923" y2="923"/><!--class Sec1Module--><rect fill="#FEFECE" filter="url(#fegrdsezmhtor)" height="48" id="Sec1Module" style="stroke: #A80036; stroke-width: 1.5;" width="108" x="301.5" y="1049"/><ellipse cx="316.5" cy="1065" fill="#ADD1B2" rx="11" ry="11" style="stroke: #A80036; stroke-width: 1.0;"/><path d="M319.4688,1070.6406 Q318.8906,1070.9375 318.25,1071.0781 Q317.6094,1071.2344 316.9063,1071.2344 Q314.4063,1071.2344 313.0781,1069.5938 Q311.7656,1067.9375 311.7656,1064.8125 Q311.7656,1061.6875 313.0781,1060.0313 Q314.4063,1058.375 316.9063,1058.375 Q317.6094,1058.375 318.25,1058.5313 Q318.9063,1058.6875 319.4688,1058.9844 L319.4688,1061.7031 Q318.8438,1061.125 318.25,1060.8594 Q317.6563,1060.5781 317.0313,1060.5781 Q315.6875,1060.5781 315,1061.6563 Q314.3125,1062.7188 314.3125,1064.8125 Q314.3125,1066.9063 315,1067.9844 Q315.6875,1069.0469 317.0313,1069.0469 Q317.6563,1069.0469 318.25,1068.7813 Q318.8438,1068.5 319.4688,1067.9219 L319.4688,1070.6406 Z "/><text fill="#000000" font-family="sans-serif" font-size="12" lengthAdjust="spacingAndGlyphs" textLength="76" x="330.5" y="1069.1543">Sec1Module</text><line style="stroke: #A80036; stroke-width: 1.5;" x1="302.5" x2="408.5" y1="1081" y2="1081"/><line style="stroke: #A80036; stroke-width: 1.5;" x1="302.5" x2="408.5" y1="1089" y2="1089"/><!--class Sem1Module--><rect fill="#FEFECE" filter="url(#fegrdsezmhtor)" height="48" id="Sem1Module" style="stroke: #A80036; stroke-width: 1.5;" width="112" x="299.5" y="1132"/><ellipse cx="314.5" cy="1148" fill="#ADD1B2" rx="11" ry="11" style="stroke: #A80036; stroke-width: 1.0;"/><path d="M317.4688,1153.6406 Q316.8906,1153.9375 316.25,1154.0781 Q315.6094,1154.2344 314.9063,1154.2344 Q312.4063,1154.2344 311.0781,1152.5938 Q309.7656,1150.9375 309.7656,1147.8125 Q309.7656,1144.6875 311.0781,1143.0313 Q312.4063,1141.375 314.9063,1141.375 Q315.6094,1141.375 316.25,1141.5313 Q316.9063,1141.6875 317.4688,1141.9844 L317.4688,1144.7031 Q316.8438,1144.125 316.25,1143.8594 Q315.6563,1143.5781 315.0313,1143.5781 Q313.6875,1143.5781 313,1144.6563 Q312.3125,1145.7188 312.3125,1147.8125 Q312.3125,1149.9063 313,1150.9844 Q313.6875,1152.0469 315.0313,1152.0469 Q315.6563,1152.0469 316.25,1151.7813 Q316.8438,1151.5 317.4688,1150.9219 L317.4688,1153.6406 Z "/><text fill="#000000" font-family="sans-serif" font-size="12" lengthAdjust="spacingAndGlyphs" textLength="80" x="328.5" y="1152.1543">Sem1Module</text><line style="stroke: #A80036; stroke-width: 1.5;" x1="300.5" x2="410.5" y1="1164" y2="1164"/><line style="stroke: #A80036; stroke-width: 1.5;" x1="300.5" x2="410.5" y1="1172" y2="1172"/><!--class Spm1Module--><rect fill="#FEFECE" filter="url(#fegrdsezmhtor)" height="48" id="Spm1Module" style="stroke: #A80036; stroke-width: 1.5;" width="112" x="299.5" y="1215"/><ellipse cx="314.5" cy="1231" fill="#ADD1B2" rx="11" ry="11" style="stroke: #A80036; stroke-width: 1.0;"/><path d="M317.4688,1236.6406 Q316.8906,1236.9375 316.25,1237.0781 Q315.6094,1237.2344 314.9063,1237.2344 Q312.4063,1237.2344 311.0781,1235.5938 Q309.7656,1233.9375 309.7656,1230.8125 Q309.7656,1227.6875 311.0781,1226.0313 Q312.4063,1224.375 314.9063,1224.375 Q315.6094,1224.375 316.25,1224.5313 Q316.9063,1224.6875 317.4688,1224.9844 L317.4688,1227.7031 Q316.8438,1227.125 316.25,1226.8594 Q315.6563,1226.5781 315.0313,1226.5781 Q313.6875,1226.5781 313,1227.6563 Q312.3125,1228.7188 312.3125,1230.8125 Q312.3125,1232.9063 313,1233.9844 Q313.6875,1235.0469 315.0313,1235.0469 Q315.6563,1235.0469 316.25,1234.7813 Q316.8438,1234.5 317.4688,1233.9219 L317.4688,1236.6406 Z "/><text fill="#000000" font-family="sans-serif" font-size="12" lengthAdjust="spacingAndGlyphs" textLength="80" x="328.5" y="1235.1543">Spm1Module</text><line style="stroke: #A80036; stroke-width: 1.5;" x1="300.5" x2="410.5" y1="1247" y2="1247"/><line style="stroke: #A80036; stroke-width: 1.5;" x1="300.5" x2="410.5" y1="1255" y2="1255"/><!--class ActualValuesGui--><rect fill="#FEFECE" filter="url(#fegrdsezmhtor)" height="48" id="ActualValuesGui" style="stroke: #A80036; stroke-width: 1.5;" width="133" x="289" y="59"/><ellipse cx="304" cy="75" fill="#ADD1B2" rx="11" ry="11" style="stroke: #A80036; stroke-width: 1.0;"/><path d="M306.9688,80.6406 Q306.3906,80.9375 305.75,81.0781 Q305.1094,81.2344 304.4063,81.2344 Q301.9063,81.2344 300.5781,79.5938 Q299.2656,77.9375 299.2656,74.8125 Q299.2656,71.6875 300.5781,70.0313 Q301.9063,68.375 304.4063,68.375 Q305.1094,68.375 305.75,68.5313 Q306.4063,68.6875 306.9688,68.9844 L306.9688,71.7031 Q306.3438,71.125 305.75,70.8594 Q305.1563,70.5781 304.5313,70.5781 Q303.1875,70.5781 302.5,71.6563 Q301.8125,72.7188 301.8125,74.8125 Q301.8125,76.9063 302.5,77.9844 Q303.1875,79.0469 304.5313,79.0469 Q305.1563,79.0469 305.75,78.7813 Q306.3438,78.5 306.9688,77.9219 L306.9688,80.6406 Z "/><text fill="#000000" font-family="sans-serif" font-size="12" lengthAdjust="spacingAndGlyphs" textLength="101" x="318" y="79.1543">ActualValuesGui</text><line style="stroke: #A80036; stroke-width: 1.5;" x1="290" x2="421" y1="91" y2="91"/><line style="stroke: #A80036; stroke-width: 1.5;" x1="290" x2="421" y1="99" y2="99"/><!--class HarmonicCurvesGui--><rect fill="#FEFECE" filter="url(#fegrdsezmhtor)" height="48" id="HarmonicCurvesGui" style="stroke: #A80036; stroke-width: 1.5;" width="153" x="279" y="182"/><ellipse cx="294" cy="198" fill="#ADD1B2" rx="11" ry="11" style="stroke: #A80036; stroke-width: 1.0;"/><path d="M296.9688,203.6406 Q296.3906,203.9375 295.75,204.0781 Q295.1094,204.2344 294.4063,204.2344 Q291.9063,204.2344 290.5781,202.5938 Q289.2656,200.9375 289.2656,197.8125 Q289.2656,194.6875 290.5781,193.0313 Q291.9063,191.375 294.4063,191.375 Q295.1094,191.375 295.75,191.5313 Q296.4063,191.6875 296.9688,191.9844 L296.9688,194.7031 Q296.3438,194.125 295.75,193.8594 Q295.1563,193.5781 294.5313,193.5781 Q293.1875,193.5781 292.5,194.6563 Q291.8125,195.7188 291.8125,197.8125 Q291.8125,199.9063 292.5,200.9844 Q293.1875,202.0469 294.5313,202.0469 Q295.1563,202.0469 295.75,201.7813 Q296.3438,201.5 296.9688,200.9219 L296.9688,203.6406 Z "/><text fill="#000000" font-family="sans-serif" font-size="12" lengthAdjust="spacingAndGlyphs" textLength="121" x="308" y="202.1543">HarmonicCurvesGui</text><line style="stroke: #A80036; stroke-width: 1.5;" x1="280" x2="431" y1="214" y2="214"/><line style="stroke: #A80036; stroke-width: 1.5;" x1="280" x2="431" y1="222" y2="222"/><!--class CurveDisplayGui--><rect fill="#FEFECE" filter="url(#fegrdsezmhtor)" height="48" id="CurveDisplayGui" style="stroke: #A80036; stroke-width: 1.5;" width="131" x="290" y="265"/><ellipse cx="305" cy="281" fill="#ADD1B2" rx="11" ry="11" style="stroke: #A80036; stroke-width: 1.0;"/><path d="M307.9688,286.6406 Q307.3906,286.9375 306.75,287.0781 Q306.1094,287.2344 305.4063,287.2344 Q302.9063,287.2344 301.5781,285.5938 Q300.2656,283.9375 300.2656,280.8125 Q300.2656,277.6875 301.5781,276.0313 Q302.9063,274.375 305.4063,274.375 Q306.1094,274.375 306.75,274.5313 Q307.4063,274.6875 307.9688,274.9844 L307.9688,277.7031 Q307.3438,277.125 306.75,276.8594 Q306.1563,276.5781 305.5313,276.5781 Q304.1875,276.5781 303.5,277.6563 Q302.8125,278.7188 302.8125,280.8125 Q302.8125,282.9063 303.5,283.9844 Q304.1875,285.0469 305.5313,285.0469 Q306.1563,285.0469 306.75,284.7813 Q307.3438,284.5 307.9688,283.9219 L307.9688,286.6406 Z "/><text fill="#000000" font-family="sans-serif" font-size="12" lengthAdjust="spacingAndGlyphs" textLength="99" x="319" y="285.1543">CurveDisplayGui</text><line style="stroke: #A80036; stroke-width: 1.5;" x1="291" x2="420" y1="297" y2="297"/><line style="stroke: #A80036; stroke-width: 1.5;" x1="291" x2="420" y1="305" y2="305"/><!--class HarmonicPowerGui--><rect fill="#FEFECE" filter="url(#fegrdsezmhtor)" height="48" id="HarmonicPowerGui" style="stroke: #A80036; stroke-width: 1.5;" width="149" x="281" y="388"/><ellipse cx="296" cy="404" fill="#ADD1B2" rx="11" ry="11" style="stroke: #A80036; stroke-width: 1.0;"/><path d="M298.9688,409.6406 Q298.3906,409.9375 297.75,410.0781 Q297.1094,410.2344 296.4063,410.2344 Q293.9063,410.2344 292.5781,408.5938 Q291.2656,406.9375 291.2656,403.8125 Q291.2656,400.6875 292.5781,399.0313 Q293.9063,397.375 296.4063,397.375 Q297.1094,397.375 297.75,397.5313 Q298.4063,397.6875 298.9688,397.9844 L298.9688,400.7031 Q298.3438,400.125 297.75,399.8594 Q297.1563,399.5781 296.5313,399.5781 Q295.1875,399.5781 294.5,400.6563 Q293.8125,401.7188 293.8125,403.8125 Q293.8125,405.9063 294.5,406.9844 Q295.1875,408.0469 296.5313,408.0469 Q297.1563,408.0469 297.75,407.7813 Q298.3438,407.5 298.9688,406.9219 L298.9688,409.6406 Z "/><text fill="#000000" font-family="sans-serif" font-size="12" lengthAdjust="spacingAndGlyphs" textLength="117" x="310" y="408.1543">HarmonicPowerGui</text><line style="stroke: #A80036; stroke-width: 1.5;" x1="282" x2="429" y1="420" y2="420"/><line style="stroke: #A80036; stroke-width: 1.5;" x1="282" x2="429" y1="428" y2="428"/><!--class MeterTestGui--><rect fill="#FEFECE" filter="url(#fegrdsezmhtor)" height="48" id="MeterTestGui" style="stroke: #A80036; stroke-width: 1.5;" width="115" x="68" y="1049"/><ellipse cx="83" cy="1065" fill="#ADD1B2" rx="11" ry="11" style="stroke: #A80036; stroke-width: 1.0;"/><path d="M85.9688,1070.6406 Q85.3906,1070.9375 84.75,1071.0781 Q84.1094,1071.2344 83.4063,1071.2344 Q80.9063,1071.2344 79.5781,1069.5938 Q78.2656,1067.9375 78.2656,1064.8125 Q78.2656,1061.6875 79.5781,1060.0313 Q80.9063,1058.375 83.4063,1058.375 Q84.1094,1058.375 84.75,1058.5313 Q85.4063,1058.6875 85.9688,1058.9844 L85.9688,1061.7031 Q85.3438,1061.125 84.75,1060.8594 Q84.1563,1060.5781 83.5313,1060.5781 Q82.1875,1060.5781 81.5,1061.6563 Q80.8125,1062.7188 80.8125,1064.8125 Q80.8125,1066.9063 81.5,1067.9844 Q82.1875,1069.0469 83.5313,1069.0469 Q84.1563,1069.0469 84.75,1068.7813 Q85.3438,1068.5 85.9688,1067.9219 L85.9688,1070.6406 Z "/><text fill="#000000" font-family="sans-serif" font-size="12" lengthAdjust="spacingAndGlyphs" textLength="83" x="97" y="1069.1543">MeterTestGui</text><line style="stroke: #A80036; stroke-width: 1.5;" x1="69" x2="182" y1="1081" y2="1081"/><line style="stroke: #A80036; stroke-width: 1.5;" x1="69" x2="182" y1="1089" y2="1089"/><!--class EnergyRegisterGui--><rect fill="#FEFECE" filter="url(#fegrdsezmhtor)" height="48" id="EnergyRegisterGui" style="stroke: #A80036; stroke-width: 1.5;" width="147" x="52" y="1132"/><ellipse cx="67" cy="1148" fill="#ADD1B2" rx="11" ry="11" style="stroke: #A80036; stroke-width: 1.0;"/><path d="M69.9688,1153.6406 Q69.3906,1153.9375 68.75,1154.0781 Q68.1094,1154.2344 67.4063,1154.2344 Q64.9063,1154.2344 63.5781,1152.5938 Q62.2656,1150.9375 62.2656,1147.8125 Q62.2656,1144.6875 63.5781,1143.0313 Q64.9063,1141.375 67.4063,1141.375 Q68.1094,1141.375 68.75,1141.5313 Q69.4063,1141.6875 69.9688,1141.9844 L69.9688,1144.7031 Q69.3438,1144.125 68.75,1143.8594 Q68.1563,1143.5781 67.5313,1143.5781 Q66.1875,1143.5781 65.5,1144.6563 Q64.8125,1145.7188 64.8125,1147.8125 Q64.8125,1149.9063 65.5,1150.9844 Q66.1875,1152.0469 67.5313,1152.0469 Q68.1563,1152.0469 68.75,1151.7813 Q69.3438,1151.5 69.9688,1150.9219 L69.9688,1153.6406 Z "/><text fill="#000000" font-family="sans-serif" font-size="12" lengthAdjust="spacingAndGlyphs" textLength="115" x="81" y="1152.1543">EnergyRegisterGui</text><line style="stroke: #A80036; stroke-width: 1.5;" x1="53" x2="198" y1="1164" y2="1164"/><line style="stroke: #A80036; stroke-width: 1.5;" x1="53" x2="198" y1="1172" y2="1172"/><!--class PowerRegisterGui--><rect fill="#FEFECE" filter="url(#fegrdsezmhtor)" height="48" id="PowerRegisterGui" style="stroke: #A80036; stroke-width: 1.5;" width="142" x="54.5" y="1215"/><ellipse cx="69.5" cy="1231" fill="#ADD1B2" rx="11" ry="11" style="stroke: #A80036; stroke-width: 1.0;"/><path d="M72.4688,1236.6406 Q71.8906,1236.9375 71.25,1237.0781 Q70.6094,1237.2344 69.9063,1237.2344 Q67.4063,1237.2344 66.0781,1235.5938 Q64.7656,1233.9375 64.7656,1230.8125 Q64.7656,1227.6875 66.0781,1226.0313 Q67.4063,1224.375 69.9063,1224.375 Q70.6094,1224.375 71.25,1224.5313 Q71.9063,1224.6875 72.4688,1224.9844 L72.4688,1227.7031 Q71.8438,1227.125 71.25,1226.8594 Q70.6563,1226.5781 70.0313,1226.5781 Q68.6875,1226.5781 68,1227.6563 Q67.3125,1228.7188 67.3125,1230.8125 Q67.3125,1232.9063 68,1233.9844 Q68.6875,1235.0469 70.0313,1235.0469 Q70.6563,1235.0469 71.25,1234.7813 Q71.8438,1234.5 72.4688,1233.9219 L72.4688,1236.6406 Z "/><text fill="#000000" font-family="sans-serif" font-size="12" lengthAdjust="spacingAndGlyphs" textLength="110" x="83.5" y="1235.1543">PowerRegisterGui</text><line style="stroke: #A80036; stroke-width: 1.5;" x1="55.5" x2="195.5" y1="1247" y2="1247"/><line style="stroke: #A80036; stroke-width: 1.5;" x1="55.5" x2="195.5" y1="1255" y2="1255"/><!--class VoltageBurdenGui--><rect fill="#FEFECE" filter="url(#fegrdsezmhtor)" height="48" id="VoltageBurdenGui" style="stroke: #A80036; stroke-width: 1.5;" width="145" x="283" y="511"/><ellipse cx="298" cy="527" fill="#ADD1B2" rx="11" ry="11" style="stroke: #A80036; stroke-width: 1.0;"/><path d="M300.9688,532.6406 Q300.3906,532.9375 299.75,533.0781 Q299.1094,533.2344 298.4063,533.2344 Q295.9063,533.2344 294.5781,531.5938 Q293.2656,529.9375 293.2656,526.8125 Q293.2656,523.6875 294.5781,522.0313 Q295.9063,520.375 298.4063,520.375 Q299.1094,520.375 299.75,520.5313 Q300.4063,520.6875 300.9688,520.9844 L300.9688,523.7031 Q300.3438,523.125 299.75,522.8594 Q299.1563,522.5781 298.5313,522.5781 Q297.1875,522.5781 296.5,523.6563 Q295.8125,524.7188 295.8125,526.8125 Q295.8125,528.9063 296.5,529.9844 Q297.1875,531.0469 298.5313,531.0469 Q299.1563,531.0469 299.75,530.7813 Q300.3438,530.5 300.9688,529.9219 L300.9688,532.6406 Z "/><text fill="#000000" font-family="sans-serif" font-size="12" lengthAdjust="spacingAndGlyphs" textLength="113" x="312" y="531.1543">VoltageBurdenGui</text><line style="stroke: #A80036; stroke-width: 1.5;" x1="284" x2="427" y1="543" y2="543"/><line style="stroke: #A80036; stroke-width: 1.5;" x1="284" x2="427" y1="551" y2="551"/><!--class CurrentBurdenGui--><rect fill="#FEFECE" filter="url(#fegrdsezmhtor)" height="48" id="CurrentBurdenGui" style="stroke: #A80036; stroke-width: 1.5;" width="144" x="283.5" y="594"/><ellipse cx="298.5" cy="610" fill="#ADD1B2" rx="11" ry="11" style="stroke: #A80036; stroke-width: 1.0;"/><path d="M301.4688,615.6406 Q300.8906,615.9375 300.25,616.0781 Q299.6094,616.2344 298.9063,616.2344 Q296.4063,616.2344 295.0781,614.5938 Q293.7656,612.9375 293.7656,609.8125 Q293.7656,606.6875 295.0781,605.0313 Q296.4063,603.375 298.9063,603.375 Q299.6094,603.375 300.25,603.5313 Q300.9063,603.6875 301.4688,603.9844 L301.4688,606.7031 Q300.8438,606.125 300.25,605.8594 Q299.6563,605.5781 299.0313,605.5781 Q297.6875,605.5781 297,606.6563 Q296.3125,607.7188 296.3125,609.8125 Q296.3125,611.9063 297,612.9844 Q297.6875,614.0469 299.0313,614.0469 Q299.6563,614.0469 300.25,613.7813 Q300.8438,613.5 301.4688,612.9219 L301.4688,615.6406 Z "/><text fill="#000000" font-family="sans-serif" font-size="12" lengthAdjust="spacingAndGlyphs" textLength="112" x="312.5" y="614.1543">CurrentBurdenGui</text><line style="stroke: #A80036; stroke-width: 1.5;" x1="284.5" x2="426.5" y1="626" y2="626"/><line style="stroke: #A80036; stroke-width: 1.5;" x1="284.5" x2="426.5" y1="634" y2="634"/><!--class CurrentTransformerGui--><rect fill="#FEFECE" filter="url(#fegrdsezmhtor)" height="48" id="CurrentTransformerGui" style="stroke: #A80036; stroke-width: 1.5;" width="175" x="38" y="305"/><ellipse cx="53" cy="321" fill="#ADD1B2" rx="11" ry="11" style="stroke: #A80036; stroke-width: 1.0;"/><path d="M55.9688,326.6406 Q55.3906,326.9375 54.75,327.0781 Q54.1094,327.2344 53.4063,327.2344 Q50.9063,327.2344 49.5781,325.5938 Q48.2656,323.9375 48.2656,320.8125 Q48.2656,317.6875 49.5781,316.0313 Q50.9063,314.375 53.4063,314.375 Q54.1094,314.375 54.75,314.5313 Q55.4063,314.6875 55.9688,314.9844 L55.9688,317.7031 Q55.3438,317.125 54.75,316.8594 Q54.1563,316.5781 53.5313,316.5781 Q52.1875,316.5781 51.5,317.6563 Q50.8125,318.7188 50.8125,320.8125 Q50.8125,322.9063 51.5,323.9844 Q52.1875,325.0469 53.5313,325.0469 Q54.1563,325.0469 54.75,324.7813 Q55.3438,324.5 55.9688,323.9219 L55.9688,326.6406 Z "/><text fill="#000000" font-family="sans-serif" font-size="12" lengthAdjust="spacingAndGlyphs" textLength="143" x="67" y="325.1543">CurrentTransformerGui</text><line style="stroke: #A80036; stroke-width: 1.5;" x1="39" x2="212" y1="337" y2="337"/><line style="stroke: #A80036; stroke-width: 1.5;" x1="39" x2="212" y1="345" y2="345"/><!--class DeviceInformationGui--><rect fill="#FEFECE" filter="url(#fegrdsezmhtor)" height="48" id="DeviceInformationGui" style="stroke: #A80036; stroke-width: 1.5;" width="164" x="43.5" y="182"/><ellipse cx="58.5" cy="198" fill="#ADD1B2" rx="11" ry="11" style="stroke: #A80036; stroke-width: 1.0;"/><path d="M61.4688,203.6406 Q60.8906,203.9375 60.25,204.0781 Q59.6094,204.2344 58.9063,204.2344 Q56.4063,204.2344 55.0781,202.5938 Q53.7656,200.9375 53.7656,197.8125 Q53.7656,194.6875 55.0781,193.0313 Q56.4063,191.375 58.9063,191.375 Q59.6094,191.375 60.25,191.5313 Q60.9063,191.6875 61.4688,191.9844 L61.4688,194.7031 Q60.8438,194.125 60.25,193.8594 Q59.6563,193.5781 59.0313,193.5781 Q57.6875,193.5781 57,194.6563 Q56.3125,195.7188 56.3125,197.8125 Q56.3125,199.9063 57,200.9844 Q57.6875,202.0469 59.0313,202.0469 Q59.6563,202.0469 60.25,201.7813 Q60.8438,201.5 61.4688,200.9219 L61.4688,203.6406 Z "/><text fill="#000000" font-family="sans-serif" font-size="12" lengthAdjust="spacingAndGlyphs" textLength="132" x="72.5" y="202.1543">DeviceInformationGui</text><line style="stroke: #A80036; stroke-width: 1.5;" x1="44.5" x2="206.5" y1="214" y2="214"/><line style="stroke: #A80036; stroke-width: 1.5;" x1="44.5" x2="206.5" y1="222" y2="222"/><!--class DeviceSettingGui--><rect fill="#FEFECE" filter="url(#fegrdsezmhtor)" height="48" id="DeviceSettingGui" style="stroke: #A80036; stroke-width: 1.5;" width="138" x="56.5" y="59"/><ellipse cx="71.5" cy="75" fill="#ADD1B2" rx="11" ry="11" style="stroke: #A80036; stroke-width: 1.0;"/><path d="M74.4688,80.6406 Q73.8906,80.9375 73.25,81.0781 Q72.6094,81.2344 71.9063,81.2344 Q69.4063,81.2344 68.0781,79.5938 Q66.7656,77.9375 66.7656,74.8125 Q66.7656,71.6875 68.0781,70.0313 Q69.4063,68.375 71.9063,68.375 Q72.6094,68.375 73.25,68.5313 Q73.9063,68.6875 74.4688,68.9844 L74.4688,71.7031 Q73.8438,71.125 73.25,70.8594 Q72.6563,70.5781 72.0313,70.5781 Q70.6875,70.5781 70,71.6563 Q69.3125,72.7188 69.3125,74.8125 Q69.3125,76.9063 70,77.9844 Q70.6875,79.0469 72.0313,79.0469 Q72.6563,79.0469 73.25,78.7813 Q73.8438,78.5 74.4688,77.9219 L74.4688,80.6406 Z "/><text fill="#000000" font-family="sans-serif" font-size="12" lengthAdjust="spacingAndGlyphs" textLength="106" x="85.5" y="79.1543">DeviceSettingGui</text><line style="stroke: #A80036; stroke-width: 1.5;" x1="57.5" x2="193.5" y1="91" y2="91"/><line style="stroke: #A80036; stroke-width: 1.5;" x1="57.5" x2="193.5" y1="99" y2="99"/><!--class ZeraGlueLogic--><rect fill="#FEFECE" filter="url(#fegrdsezmhtor)" height="48" id="ZeraGlueLogic" style="stroke: #A80036; stroke-width: 1.5;" width="122" x="64.5" y="388"/><ellipse cx="79.5" cy="404" fill="#ADD1B2" rx="11" ry="11" style="stroke: #A80036; stroke-width: 1.0;"/><path d="M82.4688,409.6406 Q81.8906,409.9375 81.25,410.0781 Q80.6094,410.2344 79.9063,410.2344 Q77.4063,410.2344 76.0781,408.5938 Q74.7656,406.9375 74.7656,403.8125 Q74.7656,400.6875 76.0781,399.0313 Q77.4063,397.375 79.9063,397.375 Q80.6094,397.375 81.25,397.5313 Q81.9063,397.6875 82.4688,397.9844 L82.4688,400.7031 Q81.8438,400.125 81.25,399.8594 Q80.6563,399.5781 80.0313,399.5781 Q78.6875,399.5781 78,400.6563 Q77.3125,401.7188 77.3125,403.8125 Q77.3125,405.9063 78,406.9844 Q78.6875,408.0469 80.0313,408.0469 Q80.6563,408.0469 81.25,407.7813 Q81.8438,407.5 82.4688,406.9219 L82.4688,409.6406 Z "/><text fill="#000000" font-family="sans-serif" font-size="12" lengthAdjust="spacingAndGlyphs" textLength="90" x="93.5" y="408.1543">ZeraGlueLogic</text><line style="stroke: #A80036; stroke-width: 1.5;" x1="65.5" x2="185.5" y1="420" y2="420"/><line style="stroke: #A80036; stroke-width: 1.5;" x1="65.5" x2="185.5" y1="428" y2="428"/><!--class Burden--><rect fill="#FEFECE" filter="url(#fegrdsezmhtor)" height="48" id="Burden" style="stroke: #A80036; stroke-width: 1.5;" width="77" x="530" y="511"/><ellipse cx="545" cy="527" fill="#ADD1B2" rx="11" ry="11" style="stroke: #A80036; stroke-width: 1.0;"/><path d="M547.9688,532.6406 Q547.3906,532.9375 546.75,533.0781 Q546.1094,533.2344 545.4063,533.2344 Q542.9063,533.2344 541.5781,531.5938 Q540.2656,529.9375 540.2656,526.8125 Q540.2656,523.6875 541.5781,522.0313 Q542.9063,520.375 545.4063,520.375 Q546.1094,520.375 546.75,520.5313 Q547.4063,520.6875 547.9688,520.9844 L547.9688,523.7031 Q547.3438,523.125 546.75,522.8594 Q546.1563,522.5781 545.5313,522.5781 Q544.1875,522.5781 543.5,523.6563 Q542.8125,524.7188 542.8125,526.8125 Q542.8125,528.9063 543.5,529.9844 Q544.1875,531.0469 545.5313,531.0469 Q546.1563,531.0469 546.75,530.7813 Q547.3438,530.5 547.9688,529.9219 L547.9688,532.6406 Z "/><text fill="#000000" font-family="sans-serif" font-size="12" lengthAdjust="spacingAndGlyphs" textLength="45" x="559" y="531.1543">Burden</text><line style="stroke: #A80036; stroke-width: 1.5;" x1="531" x2="606" y1="543" y2="543"/><line style="stroke: #A80036; stroke-width: 1.5;" x1="531" x2="606" y1="551" y2="551"/><!--link ZeraGlueLogic to ActualValuesGui--><path d="M186.51,403.66 C207.7,397.58 229.58,387.1 243,369 C269.92,332.7 234.64,206.34 255,166 C266.54,143.13 287.51,124.18 307.22,110.19 " fill="none" id="ZeraGlueLogic-ActualValuesGui" style="stroke: #A80036; stroke-width: 1.0;"/><polygon fill="#A80036" points="311.67,107.1,301.9948,108.9411,307.5611,109.949,306.5532,115.5154,311.67,107.1" style="stroke: #A80036; stroke-width: 1.0;"/><!--link ZeraGlueLogic to HarmonicPowerGui--><path d="M186.7,412 C214.02,412 246.67,412 275.89,412 " fill="none" id="ZeraGlueLogic-HarmonicPowerGui" style="stroke: #A80036; stroke-width: 1.0;"/><polygon fill="#A80036" points="280.93,412,271.93,408,275.93,412,271.93,416,280.93,412" style="stroke: #A80036; stroke-width: 1.0;"/><!--link ZeraGlueLogic to CurrentBurdenGui--><path d="M139.9,436.03 C160.53,471.08 203.14,536.34 255,576 C262.6,581.81 271.13,586.98 279.91,591.52 " fill="none" id="ZeraGlueLogic-CurrentBurdenGui" style="stroke: #A80036; stroke-width: 1.0;"/><polygon fill="#A80036" points="284.81,593.98,278.5685,586.3614,280.3436,591.7325,274.9725,593.5076,284.81,593.98" style="stroke: #A80036; stroke-width: 1.0;"/><!--link ZeraGlueLogic to VoltageBurdenGui--><path d="M171,436.01 C209.48,456.77 265.05,486.74 304.94,508.26 " fill="none" id="ZeraGlueLogic-VoltageBurdenGui" style="stroke: #A80036; stroke-width: 1.0;"/><polygon fill="#A80036" points="309.72,510.84,303.6952,503.0489,305.3186,508.4678,299.8996,510.0912,309.72,510.84" style="stroke: #A80036; stroke-width: 1.0;"/><!--link ZeraGlueLogic to CurveDisplayGui--><path d="M186.51,393.33 C205.07,386.65 225.29,378.4 243,369 C271.01,354.13 300.05,333.09 321.46,316.32 " fill="none" id="ZeraGlueLogic-CurveDisplayGui" style="stroke: #A80036; stroke-width: 1.0;"/><polygon fill="#A80036" points="325.64,313.03,316.0915,315.4436,321.7079,316.1185,321.033,321.7349,325.64,313.03" style="stroke: #A80036; stroke-width: 1.0;"/><!--link MeterTestGui to Sec1Module--><path d="M183.15,1073 C219.29,1073 265.82,1073 301.27,1073 " fill="none" id="MeterTestGui-Sec1Module" style="stroke: #A80036; stroke-width: 1.0;"/><!--link EnergyRegisterGui to Sem1Module--><path d="M199.27,1156 C231.72,1156 269.32,1156 299.39,1156 " fill="none" id="EnergyRegisterGui-Sem1Module" style="stroke: #A80036; stroke-width: 1.0;"/><!--link PowerRegisterGui to Spm1Module--><path d="M196.77,1239 C229.74,1239 268.47,1239 299.29,1239 " fill="none" id="PowerRegisterGui-Spm1Module" style="stroke: #A80036; stroke-width: 1.0;"/><!--link VoltageBurdenGui to Burden--><path d="M428.23,535 C460.28,535 496.99,535 524.67,535 " fill="none" id="VoltageBurdenGui-Burden" style="stroke: #A80036; stroke-width: 1.0;"/><polygon fill="#A80036" points="529.73,535,520.73,531,524.73,535,520.73,539,529.73,535" style="stroke: #A80036; stroke-width: 1.0;"/><!--link FFTModule to Power3Module--><!--link Power3Module to Power1Module--><!--link Power1Module to Power2Module--><!--link FFTModule to LambdaModule--><!--link LambdaModule to DFTModule--><!--link DFTModule to Burden1Module--><!--link Burden1Module to TransformerModule--><!--link LambdaModule to RMSModule--><!--link RMSModule to AdjustmentModule--><!--
@startuml guiComp
skinparamlocked backgroundColor darkgrey
left to right direction
package "zeramodulemanager" {
class FFTModule
class Power3Module
class Power1Module
class Power2Module
class Power3Module
class LambdaModule
class LambdaModule
class DFTModule
class Burden1Module
class DFTModule
class TransformerModule
class RMSModule
class AdjustmentModule
class Sec1Module
class Sem1Module
class Spm1Module
}


class FFTModule
class Power1Module
class Power2Module
class Power3Module
class LambdaModule
class DFTModule
class Burden1Module 
class DFTModule
class TransformerModule
class RMSModule
class AdjustmentModule

frame "ActualValues"{
    class ActualValuesGui
}
frame "HarmonicCurves"{
    class HarmonicCurvesGui
    class CurveDisplayGui
}
frame "HarmoicPowerValues"{
    class HarmonicPowerGui
}
frame "ComparisonMeasurement"{
    class MeterTestGui
    class EnergyRegisterGui
    class PowerRegisterGui
}
frame "BurdenValues"{
    class VoltageBurdenGui
    class CurrentBurdenGui
}
frame "TransformerValues"{
    class CurrentTransformerGui
}
frame "Info" {
    class DeviceInformationGui
}
frame "Settings" {
    class "DeviceSettingGui"
}

ZeraGlueLogic- ->ActualValuesGui
ZeraGlueLogic- ->HarmonicPowerGui
ZeraGlueLogic- ->CurrentBurdenGui
ZeraGlueLogic- ->VoltageBurdenGui
ZeraGlueLogic- ->CurveDisplayGui

MeterTestGui - - Sec1Module
EnergyRegisterGui - - Sem1Module
PowerRegisterGui - - Spm1Module

VoltageBurdenGui - -> Burden

@enduml

PlantUML version 1.2019.01(Sat Feb 09 16:32:04 CET 2019)
(LGPL source distribution)
Java Runtime: OpenJDK Runtime Environment
JVM: OpenJDK 64-Bit Server VM
Java Version: 1.8.0_265-b01
Operating System: Linux
OS Version: 5.7.14-200.fc32.x86_64
Default Encoding: UTF-8
Language: en
Country: US
--></g></svg>