<?xml version="1.0" encoding="UTF-8" standalone="no"?><svg xmlns="http://www.w3.org/2000/svg" xmlns:xlink="http://www.w3.org/1999/xlink" contentScriptType="application/ecmascript" contentStyleType="text/css" height="368px" preserveAspectRatio="none" style="width:776px;height:368px;background:#A9A9A9;" version="1.1" viewBox="0 0 776 368" width="776px" zoomAndPan="magnify"><defs><filter height="300%" id="f7z2iqcfbt1h2" width="300%" x="-1" y="-1"><feGaussianBlur result="blurOut" stdDeviation="2.0"/><feColorMatrix in="blurOut" result="blurOut2" type="matrix" values="0 0 0 0 0 0 0 0 0 0 0 0 0 0 0 0 0 0 .4 0"/><feOffset dx="4.0" dy="4.0" in="blurOut2" result="blurOut3"/><feBlend in="SourceGraphic" in2="blurOut3" mode="normal"/></filter></defs><g><rect fill="#FFFFFF" filter="url(#f7z2iqcfbt1h2)" height="154.6641" style="stroke: #A80036; stroke-width: 1.0;" width="10" x="112" y="117.4297"/><rect fill="#FFFFFF" filter="url(#f7z2iqcfbt1h2)" height="125.5313" style="stroke: #A80036; stroke-width: 1.0;" width="10" x="225" y="146.5625"/><rect fill="#FFFFFF" filter="url(#f7z2iqcfbt1h2)" height="96.3984" style="stroke: #A80036; stroke-width: 1.0;" width="10" x="340" y="175.6953"/><rect fill="#FFFFFF" filter="url(#f7z2iqcfbt1h2)" height="67.2656" style="stroke: #A80036; stroke-width: 1.0;" width="10" x="499" y="204.8281"/><rect fill="#FFFFFF" filter="url(#f7z2iqcfbt1h2)" height="38.1328" style="stroke: #A80036; stroke-width: 1.0;" width="10" x="612" y="233.9609"/><rect fill="#FFFFFF" filter="url(#f7z2iqcfbt1h2)" height="9" style="stroke: #A80036; stroke-width: 1.0;" width="10" x="727" y="263.0938"/><line style="stroke: #A80036; stroke-width: 1.0; stroke-dasharray: 5.0,5.0;" x1="37" x2="37" y1="86.2969" y2="281.0938"/><line style="stroke: #A80036; stroke-width: 1.0; stroke-dasharray: 5.0,5.0;" x1="116.5" x2="116.5" y1="86.2969" y2="281.0938"/><line style="stroke: #A80036; stroke-width: 1.0; stroke-dasharray: 5.0,5.0;" x1="230" x2="230" y1="86.2969" y2="281.0938"/><line style="stroke: #A80036; stroke-width: 1.0; stroke-dasharray: 5.0,5.0;" x1="345" x2="345" y1="86.2969" y2="281.0938"/><line style="stroke: #A80036; stroke-width: 1.0; stroke-dasharray: 5.0,5.0;" x1="504" x2="504" y1="86.2969" y2="281.0938"/><line style="stroke: #A80036; stroke-width: 1.0; stroke-dasharray: 5.0,5.0;" x1="617" x2="617" y1="86.2969" y2="281.0938"/><line style="stroke: #A80036; stroke-width: 1.0; stroke-dasharray: 5.0,5.0;" x1="731.5" x2="731.5" y1="86.2969" y2="281.0938"/><text fill="#000000" font-family="sans-serif" font-size="14" lengthAdjust="spacingAndGlyphs" textLength="52" x="8" y="82.9951">module</text><ellipse cx="37" cy="13" fill="#FEFECE" filter="url(#f7z2iqcfbt1h2)" rx="8" ry="8" style="stroke: #A80036; stroke-width: 2.0;"/><path d="M37,21 L37,48 M24,29 L50,29 M37,48 L24,63 M37,48 L50,63 " fill="none" filter="url(#f7z2iqcfbt1h2)" style="stroke: #A80036; stroke-width: 2.0;"/><text fill="#000000" font-family="sans-serif" font-size="14" lengthAdjust="spacingAndGlyphs" textLength="52" x="8" y="293.0889">module</text><ellipse cx="37" cy="306.3906" fill="#FEFECE" filter="url(#f7z2iqcfbt1h2)" rx="8" ry="8" style="stroke: #A80036; stroke-width: 2.0;"/><path d="M37,314.3906 L37,341.3906 M24,322.3906 L50,322.3906 M37,341.3906 L24,356.3906 M37,341.3906 L50,356.3906 " fill="none" filter="url(#f7z2iqcfbt1h2)" style="stroke: #A80036; stroke-width: 2.0;"/><rect fill="#FEFECE" filter="url(#f7z2iqcfbt1h2)" height="30.2969" style="stroke: #A80036; stroke-width: 1.5;" width="55" x="87.5" y="51"/><text fill="#000000" font-family="sans-serif" font-size="14" lengthAdjust="spacingAndGlyphs" textLength="41" x="94.5" y="70.9951">VfCpp</text><rect fill="#FEFECE" filter="url(#f7z2iqcfbt1h2)" height="30.2969" style="stroke: #A80036; stroke-width: 1.5;" width="55" x="87.5" y="280.0938"/><text fill="#000000" font-family="sans-serif" font-size="14" lengthAdjust="spacingAndGlyphs" textLength="41" x="94.5" y="300.0889">VfCpp</text><rect fill="#FEFECE" filter="url(#f7z2iqcfbt1h2)" height="30.2969" style="stroke: #A80036; stroke-width: 1.5;" width="106" x="175" y="51"/><text fill="#000000" font-family="sans-serif" font-size="14" lengthAdjust="spacingAndGlyphs" textLength="92" x="182" y="70.9951">EventHandler</text><rect fill="#FEFECE" filter="url(#f7z2iqcfbt1h2)" height="30.2969" style="stroke: #A80036; stroke-width: 1.5;" width="106" x="175" y="280.0938"/><text fill="#000000" font-family="sans-serif" font-size="14" lengthAdjust="spacingAndGlyphs" textLength="92" x="182" y="300.0889">EventHandler</text><rect fill="#FEFECE" filter="url(#f7z2iqcfbt1h2)" height="30.2969" style="stroke: #A80036; stroke-width: 1.5;" width="90" x="298" y="51"/><text fill="#000000" font-family="sans-serif" font-size="14" lengthAdjust="spacingAndGlyphs" textLength="76" x="305" y="70.9951">TypSystem</text><rect fill="#FEFECE" filter="url(#f7z2iqcfbt1h2)" height="30.2969" style="stroke: #A80036; stroke-width: 1.5;" width="90" x="298" y="280.0938"/><text fill="#000000" font-family="sans-serif" font-size="14" lengthAdjust="spacingAndGlyphs" textLength="76" x="305" y="300.0889">TypSystem</text><rect fill="#FEFECE" filter="url(#f7z2iqcfbt1h2)" height="30.2969" style="stroke: #A80036; stroke-width: 1.5;" width="90" x="457" y="51"/><text fill="#000000" font-family="sans-serif" font-size="14" lengthAdjust="spacingAndGlyphs" textLength="76" x="464" y="70.9951">TypSystem</text><rect fill="#FEFECE" filter="url(#f7z2iqcfbt1h2)" height="30.2969" style="stroke: #A80036; stroke-width: 1.5;" width="90" x="457" y="280.0938"/><text fill="#000000" font-family="sans-serif" font-size="14" lengthAdjust="spacingAndGlyphs" textLength="76" x="464" y="300.0889">TypSystem</text><rect fill="#FEFECE" filter="url(#f7z2iqcfbt1h2)" height="30.2969" style="stroke: #A80036; stroke-width: 1.5;" width="106" x="562" y="51"/><text fill="#000000" font-family="sans-serif" font-size="14" lengthAdjust="spacingAndGlyphs" textLength="92" x="569" y="70.9951">EventHandler</text><rect fill="#FEFECE" filter="url(#f7z2iqcfbt1h2)" height="30.2969" style="stroke: #A80036; stroke-width: 1.5;" width="106" x="562" y="280.0938"/><text fill="#000000" font-family="sans-serif" font-size="14" lengthAdjust="spacingAndGlyphs" textLength="92" x="569" y="300.0889">EventHandler</text><rect fill="#FEFECE" filter="url(#f7z2iqcfbt1h2)" height="30.2969" style="stroke: #A80036; stroke-width: 1.5;" width="71" x="694.5" y="51"/><text fill="#000000" font-family="sans-serif" font-size="14" lengthAdjust="spacingAndGlyphs" textLength="57" x="701.5" y="70.9951">VeinQml</text><rect fill="#FEFECE" filter="url(#f7z2iqcfbt1h2)" height="30.2969" style="stroke: #A80036; stroke-width: 1.5;" width="71" x="694.5" y="280.0938"/><text fill="#000000" font-family="sans-serif" font-size="14" lengthAdjust="spacingAndGlyphs" textLength="57" x="701.5" y="300.0889">VeinQml</text><rect fill="#FFFFFF" filter="url(#f7z2iqcfbt1h2)" height="154.6641" style="stroke: #A80036; stroke-width: 1.0;" width="10" x="112" y="117.4297"/><rect fill="#FFFFFF" filter="url(#f7z2iqcfbt1h2)" height="125.5313" style="stroke: #A80036; stroke-width: 1.0;" width="10" x="225" y="146.5625"/><rect fill="#FFFFFF" filter="url(#f7z2iqcfbt1h2)" height="96.3984" style="stroke: #A80036; stroke-width: 1.0;" width="10" x="340" y="175.6953"/><rect fill="#FFFFFF" filter="url(#f7z2iqcfbt1h2)" height="67.2656" style="stroke: #A80036; stroke-width: 1.0;" width="10" x="499" y="204.8281"/><rect fill="#FFFFFF" filter="url(#f7z2iqcfbt1h2)" height="38.1328" style="stroke: #A80036; stroke-width: 1.0;" width="10" x="612" y="233.9609"/><rect fill="#FFFFFF" filter="url(#f7z2iqcfbt1h2)" height="9" style="stroke: #A80036; stroke-width: 1.0;" width="10" x="727" y="263.0938"/><polygon fill="#A80036" points="100,113.4297,110,117.4297,100,121.4297,104,117.4297" style="stroke: #A80036; stroke-width: 1.0;"/><line style="stroke: #A80036; stroke-width: 1.0;" x1="37" x2="106" y1="117.4297" y2="117.4297"/><text fill="#000000" font-family="sans-serif" font-size="13" lengthAdjust="spacingAndGlyphs" textLength="56" x="44" y="112.3638">setValue</text><polygon fill="#A80036" points="213,142.5625,223,146.5625,213,150.5625,217,146.5625" style="stroke: #A80036; stroke-width: 1.0;"/><line style="stroke: #A80036; stroke-width: 1.0;" x1="122" x2="219" y1="146.5625" y2="146.5625"/><text fill="#000000" font-family="sans-serif" font-size="13" lengthAdjust="spacingAndGlyphs" textLength="84" x="129" y="141.4966">customEvent</text><polygon fill="#A80036" points="328,171.6953,338,175.6953,328,179.6953,332,175.6953" style="stroke: #A80036; stroke-width: 1.0;"/><line style="stroke: #A80036; stroke-width: 1.0;" x1="235" x2="334" y1="175.6953" y2="175.6953"/><text fill="#000000" font-family="sans-serif" font-size="13" lengthAdjust="spacingAndGlyphs" textLength="86" x="242" y="170.6294">processEvent</text><polygon fill="#A80036" points="487,200.8281,497,204.8281,487,208.8281,491,204.8281" style="stroke: #A80036; stroke-width: 1.0;"/><line style="stroke: #A80036; stroke-width: 1.0;" x1="350" x2="493" y1="204.8281" y2="204.8281"/><text fill="#000000" font-family="sans-serif" font-size="13" lengthAdjust="spacingAndGlyphs" textLength="130" x="357" y="199.7622">onMessageReceived</text><polygon fill="#A80036" points="600,229.9609,610,233.9609,600,237.9609,604,233.9609" style="stroke: #A80036; stroke-width: 1.0;"/><line style="stroke: #A80036; stroke-width: 1.0;" x1="509" x2="606" y1="233.9609" y2="233.9609"/><text fill="#000000" font-family="sans-serif" font-size="13" lengthAdjust="spacingAndGlyphs" textLength="84" x="516" y="228.895">customEvent</text><polygon fill="#A80036" points="715,259.0938,725,263.0938,715,267.0938,719,263.0938" style="stroke: #A80036; stroke-width: 1.0;"/><line style="stroke: #A80036; stroke-width: 1.0;" x1="622" x2="721" y1="263.0938" y2="263.0938"/><text fill="#000000" font-family="sans-serif" font-size="13" lengthAdjust="spacingAndGlyphs" textLength="86" x="629" y="258.0278">processEvent</text><!--
@startuml BasicVeinSeq
skinparamlocked backgroundColor darkgrey
actor module
participant "VfCpp"
participant "EventHandler" as E1
participant "TypSystem" as T1
participant "TypSystem" as T2
participant "EventHandler" as E2
participant "VeinQml"

module -> VfCpp: setValue
activate VfCpp
VfCpp -> E1: customEvent
activate E1
E1->T1: processEvent
activate T1
T1->T2: onMessageReceived
activate T2
T2->E2: customEvent
activate E2
E2->VeinQml: processEvent
activate VeinQml 

@enduml

PlantUML version 1.2019.01(Sat Feb 09 16:32:04 CET 2019)
(LGPL source distribution)
Java Runtime: OpenJDK Runtime Environment
JVM: OpenJDK 64-Bit Server VM
Java Version: 1.8.0_265-b01
Operating System: Linux
OS Version: 5.7.14-200.fc32.x86_64
Default Encoding: UTF-8
Language: en
Country: US
--></g></svg>