<?xml version="1.0" encoding="UTF-8" standalone="no"?><svg xmlns="http://www.w3.org/2000/svg" xmlns:xlink="http://www.w3.org/1999/xlink" contentScriptType="application/ecmascript" contentStyleType="text/css" height="175px" preserveAspectRatio="none" style="width:618px;height:175px;background:#A9A9A9;" version="1.1" viewBox="0 0 618 175" width="618px" zoomAndPan="magnify"><defs><filter height="300%" id="f15mpeg54yvfg" width="300%" x="-1" y="-1"><feGaussianBlur result="blurOut" stdDeviation="2.0"/><feColorMatrix in="blurOut" result="blurOut2" type="matrix" values="0 0 0 0 0 0 0 0 0 0 0 0 0 0 0 0 0 0 .4 0"/><feOffset dx="4.0" dy="4.0" in="blurOut2" result="blurOut3"/><feBlend in="SourceGraphic" in2="blurOut3" mode="normal"/></filter></defs><g><!--class VeinEvent::EventHandler--><rect fill="#FEFECE" filter="url(#f15mpeg54yvfg)" height="48" id="VeinEvent::EventHandler" style="stroke: #A80036; stroke-width: 1.5;" width="186" x="6" y="8"/><ellipse cx="21" cy="24" fill="#ADD1B2" rx="11" ry="11" style="stroke: #A80036; stroke-width: 1.0;"/><path d="M23.9688,29.6406 Q23.3906,29.9375 22.75,30.0781 Q22.1094,30.2344 21.4063,30.2344 Q18.9063,30.2344 17.5781,28.5938 Q16.2656,26.9375 16.2656,23.8125 Q16.2656,20.6875 17.5781,19.0313 Q18.9063,17.375 21.4063,17.375 Q22.1094,17.375 22.75,17.5313 Q23.4063,17.6875 23.9688,17.9844 L23.9688,20.7031 Q23.3438,20.125 22.75,19.8594 Q22.1563,19.5781 21.5313,19.5781 Q20.1875,19.5781 19.5,20.6563 Q18.8125,21.7188 18.8125,23.8125 Q18.8125,25.9063 19.5,26.9844 Q20.1875,28.0469 21.5313,28.0469 Q22.1563,28.0469 22.75,27.7813 Q23.3438,27.5 23.9688,26.9219 L23.9688,29.6406 Z "/><text fill="#000000" font-family="sans-serif" font-size="12" lengthAdjust="spacingAndGlyphs" textLength="154" x="35" y="28.1543">VeinEvent::EventHandler</text><line style="stroke: #A80036; stroke-width: 1.5;" x1="7" x2="191" y1="40" y2="40"/><line style="stroke: #A80036; stroke-width: 1.5;" x1="7" x2="191" y1="48" y2="48"/><!--class VeinEvent::EventSystem--><rect fill="#FEFECE" filter="url(#f15mpeg54yvfg)" height="48" id="VeinEvent::EventSystem" style="stroke: #A80036; stroke-width: 1.5;" width="182" x="227" y="8"/><ellipse cx="242" cy="24" fill="#ADD1B2" rx="11" ry="11" style="stroke: #A80036; stroke-width: 1.0;"/><path d="M244.9688,29.6406 Q244.3906,29.9375 243.75,30.0781 Q243.1094,30.2344 242.4063,30.2344 Q239.9063,30.2344 238.5781,28.5938 Q237.2656,26.9375 237.2656,23.8125 Q237.2656,20.6875 238.5781,19.0313 Q239.9063,17.375 242.4063,17.375 Q243.1094,17.375 243.75,17.5313 Q244.4063,17.6875 244.9688,17.9844 L244.9688,20.7031 Q244.3438,20.125 243.75,19.8594 Q243.1563,19.5781 242.5313,19.5781 Q241.1875,19.5781 240.5,20.6563 Q239.8125,21.7188 239.8125,23.8125 Q239.8125,25.9063 240.5,26.9844 Q241.1875,28.0469 242.5313,28.0469 Q243.1563,28.0469 243.75,27.7813 Q244.3438,27.5 244.9688,26.9219 L244.9688,29.6406 Z "/><text fill="#000000" font-family="sans-serif" font-size="12" lengthAdjust="spacingAndGlyphs" textLength="150" x="256" y="28.1543">VeinEvent::EventSystem</text><line style="stroke: #A80036; stroke-width: 1.5;" x1="228" x2="408" y1="40" y2="40"/><line style="stroke: #A80036; stroke-width: 1.5;" x1="228" x2="408" y1="48" y2="48"/><!--class VfCpp::VeinModuleEntity--><rect fill="#FEFECE" filter="url(#f15mpeg54yvfg)" height="48" id="VfCpp::VeinModuleEntity" style="stroke: #A80036; stroke-width: 1.5;" width="183" x="21.5" y="116"/><ellipse cx="36.5" cy="132" fill="#ADD1B2" rx="11" ry="11" style="stroke: #A80036; stroke-width: 1.0;"/><path d="M39.4688,137.6406 Q38.8906,137.9375 38.25,138.0781 Q37.6094,138.2344 36.9063,138.2344 Q34.4063,138.2344 33.0781,136.5938 Q31.7656,134.9375 31.7656,131.8125 Q31.7656,128.6875 33.0781,127.0313 Q34.4063,125.375 36.9063,125.375 Q37.6094,125.375 38.25,125.5313 Q38.9063,125.6875 39.4688,125.9844 L39.4688,128.7031 Q38.8438,128.125 38.25,127.8594 Q37.6563,127.5781 37.0313,127.5781 Q35.6875,127.5781 35,128.6563 Q34.3125,129.7188 34.3125,131.8125 Q34.3125,133.9063 35,134.9844 Q35.6875,136.0469 37.0313,136.0469 Q37.6563,136.0469 38.25,135.7813 Q38.8438,135.5 39.4688,134.9219 L39.4688,137.6406 Z "/><text fill="#000000" font-family="sans-serif" font-size="12" lengthAdjust="spacingAndGlyphs" textLength="151" x="50.5" y="136.1543">VfCpp::VeinModuleEntity</text><line style="stroke: #A80036; stroke-width: 1.5;" x1="22.5" x2="203.5" y1="148" y2="148"/><line style="stroke: #A80036; stroke-width: 1.5;" x1="22.5" x2="203.5" y1="156" y2="156"/><!--class VeinNet::TcpSystem--><rect fill="#FEFECE" filter="url(#f15mpeg54yvfg)" height="48" id="VeinNet::TcpSystem" style="stroke: #A80036; stroke-width: 1.5;" width="156" x="240" y="116"/><ellipse cx="255" cy="132" fill="#ADD1B2" rx="11" ry="11" style="stroke: #A80036; stroke-width: 1.0;"/><path d="M257.9688,137.6406 Q257.3906,137.9375 256.75,138.0781 Q256.1094,138.2344 255.4063,138.2344 Q252.9063,138.2344 251.5781,136.5938 Q250.2656,134.9375 250.2656,131.8125 Q250.2656,128.6875 251.5781,127.0313 Q252.9063,125.375 255.4063,125.375 Q256.1094,125.375 256.75,125.5313 Q257.4063,125.6875 257.9688,125.9844 L257.9688,128.7031 Q257.3438,128.125 256.75,127.8594 Q256.1563,127.5781 255.5313,127.5781 Q254.1875,127.5781 253.5,128.6563 Q252.8125,129.7188 252.8125,131.8125 Q252.8125,133.9063 253.5,134.9844 Q254.1875,136.0469 255.5313,136.0469 Q256.1563,136.0469 256.75,135.7813 Q257.3438,135.5 257.9688,134.9219 L257.9688,137.6406 Z "/><text fill="#000000" font-family="sans-serif" font-size="12" lengthAdjust="spacingAndGlyphs" textLength="124" x="269" y="136.1543">VeinNet::TcpSystem</text><line style="stroke: #A80036; stroke-width: 1.5;" x1="241" x2="395" y1="148" y2="148"/><line style="stroke: #A80036; stroke-width: 1.5;" x1="241" x2="395" y1="156" y2="156"/><!--class VeinStorage::VeinHash--><rect fill="#FEFECE" filter="url(#f15mpeg54yvfg)" height="48" id="VeinStorage::VeinHash" style="stroke: #A80036; stroke-width: 1.5;" width="176" x="431" y="116"/><ellipse cx="446" cy="132" fill="#ADD1B2" rx="11" ry="11" style="stroke: #A80036; stroke-width: 1.0;"/><path d="M448.9688,137.6406 Q448.3906,137.9375 447.75,138.0781 Q447.1094,138.2344 446.4063,138.2344 Q443.9063,138.2344 442.5781,136.5938 Q441.2656,134.9375 441.2656,131.8125 Q441.2656,128.6875 442.5781,127.0313 Q443.9063,125.375 446.4063,125.375 Q447.1094,125.375 447.75,125.5313 Q448.4063,125.6875 448.9688,125.9844 L448.9688,128.7031 Q448.3438,128.125 447.75,127.8594 Q447.1563,127.5781 446.5313,127.5781 Q445.1875,127.5781 444.5,128.6563 Q443.8125,129.7188 443.8125,131.8125 Q443.8125,133.9063 444.5,134.9844 Q445.1875,136.0469 446.5313,136.0469 Q447.1563,136.0469 447.75,135.7813 Q448.3438,135.5 448.9688,134.9219 L448.9688,137.6406 Z "/><text fill="#000000" font-family="sans-serif" font-size="12" lengthAdjust="spacingAndGlyphs" textLength="144" x="460" y="136.1543">VeinStorage::VeinHash</text><line style="stroke: #A80036; stroke-width: 1.5;" x1="432" x2="606" y1="148" y2="148"/><line style="stroke: #A80036; stroke-width: 1.5;" x1="432" x2="606" y1="156" y2="156"/><!--link VeinEvent::EventHandler to VeinEvent::EventSystem--><path d="M192.25,32 C203.71,32 215.17,32 226.63,32 " fill="none" id="VeinEvent::EventHandler-VeinEvent::EventSystem" style="stroke: #A80036; stroke-width: 1.0;"/><text fill="#000000" font-family="sans-serif" font-size="13" lengthAdjust="spacingAndGlyphs" textLength="8" x="199.9996" y="28.4745">1</text><text fill="#000000" font-family="sans-serif" font-size="13" lengthAdjust="spacingAndGlyphs" textLength="36" x="182.8727" y="46.1294">many</text><!--link VeinEvent::EventSystem to VfCpp::VeinModuleEntity--><path d="M255.72,65.2 C224.12,81.54 186.45,101.02 157.75,115.86 " fill="none" id="VeinEvent::EventSystem-VfCpp::VeinModuleEntity" style="stroke: #A80036; stroke-width: 1.0;"/><polygon fill="none" points="252.54,58.97,273.52,56,258.97,71.4,252.54,58.97" style="stroke: #A80036; stroke-width: 1.0;"/><!--link VeinEvent::EventSystem to VeinNet::TcpSystem--><path d="M318,76.02 C318,89.58 318,104.04 318,115.68 " fill="none" id="VeinEvent::EventSystem-VeinNet::TcpSystem" style="stroke: #A80036; stroke-width: 1.0;"/><polygon fill="none" points="311,76,318,56,325,76,311,76" style="stroke: #A80036; stroke-width: 1.0;"/><!--link VeinEvent::EventSystem to VeinStorage::VeinHash--><path d="M379.5,65.43 C410.39,81.73 447.11,101.09 475.12,115.86 " fill="none" id="VeinEvent::EventSystem-VeinStorage::VeinHash" style="stroke: #A80036; stroke-width: 1.0;"/><polygon fill="none" points="376.04,71.52,361.61,56,382.57,59.14,376.04,71.52" style="stroke: #A80036; stroke-width: 1.0;"/><!--
@startuml BasicVeinClass
skinparamlocked backgroundColor darkgrey
VeinEvent::EventHandler "1" - "many" VeinEvent::EventSystem 
VeinEvent::EventSystem <|- - VfCpp::VeinModuleEntity
VeinEvent::EventSystem <|- - VeinNet::TcpSystem
VeinEvent::EventSystem <|- - VeinStorage::VeinHash
@enduml

PlantUML version 1.2019.01(Sat Feb 09 16:32:04 CET 2019)
(LGPL source distribution)
Java Runtime: OpenJDK Runtime Environment
JVM: OpenJDK 64-Bit Server VM
Java Version: 1.8.0_265-b01
Operating System: Linux
OS Version: 5.7.14-200.fc32.x86_64
Default Encoding: UTF-8
Language: en
Country: US
--></g></svg>