<?xml version="1.0" encoding="UTF-8" standalone="no"?><svg xmlns="http://www.w3.org/2000/svg" xmlns:xlink="http://www.w3.org/1999/xlink" contentScriptType="application/ecmascript" contentStyleType="text/css" height="227px" preserveAspectRatio="none" style="width:850px;height:227px;background:#A9A9A9;" version="1.1" viewBox="0 0 850 227" width="850px" zoomAndPan="magnify"><defs><filter height="300%" id="f1wmow8kfb9w6w" width="300%" x="-1" y="-1"><feGaussianBlur result="blurOut" stdDeviation="2.0"/><feColorMatrix in="blurOut" result="blurOut2" type="matrix" values="0 0 0 0 0 0 0 0 0 0 0 0 0 0 0 0 0 0 .4 0"/><feOffset dx="4.0" dy="4.0" in="blurOut2" result="blurOut3"/><feBlend in="SourceGraphic" in2="blurOut3" mode="normal"/></filter></defs><g><rect fill="#FFFFFF" filter="url(#f1wmow8kfb9w6w)" height="123.1328" style="stroke: #A80036; stroke-width: 1.0;" width="10" x="73" y="54.2969"/><rect fill="#A9A9A9" filter="url(#f1wmow8kfb9w6w)" height="31.1328" style="stroke: #000000; stroke-width: 2.0;" width="211" x="13" y="139.2969"/><line style="stroke: #A80036; stroke-width: 1.0; stroke-dasharray: 5.0,5.0;" x1="78" x2="78" y1="38.2969" y2="187.4297"/><line style="stroke: #A80036; stroke-width: 1.0; stroke-dasharray: 5.0,5.0;" x1="241" x2="241" y1="38.2969" y2="187.4297"/><line style="stroke: #A80036; stroke-width: 1.0; stroke-dasharray: 5.0,5.0;" x1="429" x2="429" y1="38.2969" y2="187.4297"/><line style="stroke: #A80036; stroke-width: 1.0; stroke-dasharray: 5.0,5.0;" x1="560" x2="560" y1="38.2969" y2="187.4297"/><line style="stroke: #A80036; stroke-width: 1.0; stroke-dasharray: 5.0,5.0;" x1="675" x2="675" y1="38.2969" y2="187.4297"/><line style="stroke: #A80036; stroke-width: 1.0; stroke-dasharray: 5.0,5.0;" x1="795" x2="795" y1="38.2969" y2="187.4297"/><rect fill="#FEFECE" filter="url(#f1wmow8kfb9w6w)" height="30.2969" style="stroke: #A80036; stroke-width: 1.5;" width="106" x="23" y="3"/><text fill="#000000" font-family="sans-serif" font-size="14" lengthAdjust="spacingAndGlyphs" textLength="92" x="30" y="22.9951">EventHandler</text><rect fill="#FEFECE" filter="url(#f1wmow8kfb9w6w)" height="30.2969" style="stroke: #A80036; stroke-width: 1.5;" width="106" x="23" y="186.4297"/><text fill="#000000" font-family="sans-serif" font-size="14" lengthAdjust="spacingAndGlyphs" textLength="92" x="30" y="206.4248">EventHandler</text><rect fill="#FEFECE" filter="url(#f1wmow8kfb9w6w)" height="30.2969" style="stroke: #A80036; stroke-width: 1.5;" width="192" x="143" y="3"/><text fill="#000000" font-family="sans-serif" font-size="14" lengthAdjust="spacingAndGlyphs" textLength="178" x="150" y="22.9951">ModuleManagerController</text><rect fill="#FEFECE" filter="url(#f1wmow8kfb9w6w)" height="30.2969" style="stroke: #A80036; stroke-width: 1.5;" width="192" x="143" y="186.4297"/><text fill="#000000" font-family="sans-serif" font-size="14" lengthAdjust="spacingAndGlyphs" textLength="178" x="150" y="206.4248">ModuleManagerController</text><rect fill="#FEFECE" filter="url(#f1wmow8kfb9w6w)" height="30.2969" style="stroke: #A80036; stroke-width: 1.5;" width="156" x="349" y="3"/><text fill="#000000" font-family="sans-serif" font-size="14" lengthAdjust="spacingAndGlyphs" textLength="142" x="356" y="22.9951">IntrospectionSystem</text><rect fill="#FEFECE" filter="url(#f1wmow8kfb9w6w)" height="30.2969" style="stroke: #A80036; stroke-width: 1.5;" width="156" x="349" y="186.4297"/><text fill="#000000" font-family="sans-serif" font-size="14" lengthAdjust="spacingAndGlyphs" textLength="142" x="356" y="206.4248">IntrospectionSystem</text><rect fill="#FEFECE" filter="url(#f1wmow8kfb9w6w)" height="30.2969" style="stroke: #A80036; stroke-width: 1.5;" width="79" x="519" y="3"/><text fill="#000000" font-family="sans-serif" font-size="14" lengthAdjust="spacingAndGlyphs" textLength="65" x="526" y="22.9951">VeinHash</text><rect fill="#FEFECE" filter="url(#f1wmow8kfb9w6w)" height="30.2969" style="stroke: #A80036; stroke-width: 1.5;" width="79" x="519" y="186.4297"/><text fill="#000000" font-family="sans-serif" font-size="14" lengthAdjust="spacingAndGlyphs" textLength="65" x="526" y="206.4248">VeinHash</text><rect fill="#FEFECE" filter="url(#f1wmow8kfb9w6w)" height="30.2969" style="stroke: #A80036; stroke-width: 1.5;" width="122" x="612" y="3"/><text fill="#000000" font-family="sans-serif" font-size="14" lengthAdjust="spacingAndGlyphs" textLength="108" x="619" y="22.9951">NetworkSystem</text><rect fill="#FEFECE" filter="url(#f1wmow8kfb9w6w)" height="30.2969" style="stroke: #A80036; stroke-width: 1.5;" width="122" x="612" y="186.4297"/><text fill="#000000" font-family="sans-serif" font-size="14" lengthAdjust="spacingAndGlyphs" textLength="108" x="619" y="206.4248">NetworkSystem</text><rect fill="#FEFECE" filter="url(#f1wmow8kfb9w6w)" height="30.2969" style="stroke: #A80036; stroke-width: 1.5;" width="91" x="748" y="3"/><text fill="#000000" font-family="sans-serif" font-size="14" lengthAdjust="spacingAndGlyphs" textLength="77" x="755" y="22.9951">TcpSystem</text><rect fill="#FEFECE" filter="url(#f1wmow8kfb9w6w)" height="30.2969" style="stroke: #A80036; stroke-width: 1.5;" width="91" x="748" y="186.4297"/><text fill="#000000" font-family="sans-serif" font-size="14" lengthAdjust="spacingAndGlyphs" textLength="77" x="755" y="206.4248">TcpSystem</text><rect fill="#FFFFFF" filter="url(#f1wmow8kfb9w6w)" height="123.1328" style="stroke: #A80036; stroke-width: 1.0;" width="10" x="73" y="54.2969"/><ellipse cx="10.5" cy="53.5469" fill="none" rx="4" ry="4" style="stroke: #A80036; stroke-width: 1.5;"/><polygon fill="#A80036" points="61,50.2969,71,54.2969,61,58.2969,65,54.2969" style="stroke: #A80036; stroke-width: 1.0;"/><line style="stroke: #A80036; stroke-width: 1.0;" x1="15" x2="67" y1="54.2969" y2="54.2969"/><polygon fill="#A80036" points="229,64.2969,239,68.2969,229,72.2969,233,68.2969" style="stroke: #A80036; stroke-width: 1.0;"/><line style="stroke: #A80036; stroke-width: 1.0;" x1="83" x2="235" y1="68.2969" y2="68.2969"/><polygon fill="#A80036" points="417,78.2969,427,82.2969,417,86.2969,421,82.2969" style="stroke: #A80036; stroke-width: 1.0;"/><line style="stroke: #A80036; stroke-width: 1.0;" x1="83" x2="423" y1="82.2969" y2="82.2969"/><polygon fill="#A80036" points="548.5,92.2969,558.5,96.2969,548.5,100.2969,552.5,96.2969" style="stroke: #A80036; stroke-width: 1.0;"/><line style="stroke: #A80036; stroke-width: 1.0;" x1="83" x2="554.5" y1="96.2969" y2="96.2969"/><polygon fill="#A80036" points="663,106.2969,673,110.2969,663,114.2969,667,110.2969" style="stroke: #A80036; stroke-width: 1.0;"/><line style="stroke: #A80036; stroke-width: 1.0;" x1="83" x2="669" y1="110.2969" y2="110.2969"/><polygon fill="#A80036" points="783.5,120.2969,793.5,124.2969,783.5,128.2969,787.5,124.2969" style="stroke: #A80036; stroke-width: 1.0;"/><line style="stroke: #A80036; stroke-width: 1.0;" x1="83" x2="789.5" y1="124.2969" y2="124.2969"/><path d="M13,139.2969 L90,139.2969 L90,146.2969 L80,156.2969 L13,156.2969 L13,139.2969 " fill="#EEEEEE" style="stroke: #000000; stroke-width: 1.0;"/><rect fill="none" height="31.1328" style="stroke: #000000; stroke-width: 2.0;" width="211" x="13" y="139.2969"/><text fill="#000000" font-family="sans-serif" font-size="13" font-weight="bold" lengthAdjust="spacingAndGlyphs" textLength="32" x="28" y="152.3638">loop</text><text fill="#000000" font-family="sans-serif" font-size="11" font-weight="bold" lengthAdjust="spacingAndGlyphs" textLength="114" x="105" y="151.5073">[for each module]</text><ellipse cx="114.5" cy="161.6797" fill="none" rx="4" ry="4" style="stroke: #A80036; stroke-width: 1.5;"/><polygon fill="#A80036" points="97.5,158.4297,107.5,162.4297,97.5,166.4297,101.5,162.4297" style="stroke: #A80036; stroke-width: 1.0;"/><line style="stroke: #A80036; stroke-width: 1.0;" x1="83" x2="103.5" y1="162.4297" y2="162.4297"/><!--
@startuml EventLoop
skinparamlocked backgroundColor darkgrey

participant "EventHandler" as EH
participant "ModuleManagerController" as MC
participant "IntrospectionSystem" as VI
participant "VeinHash" as VS
participant "NetworkSystem" as VN
participant "TcpSystem" as VT


[o-> EH
activate EH
EH -> MC
EH -> VI
EH -> VS
EH -> VN
EH -> VT

loop for each module
    EH ->o?
end    

deactivate EH


@enduml

PlantUML version 1.2019.01(Sat Feb 09 16:32:04 CET 2019)
(LGPL source distribution)
Java Runtime: OpenJDK Runtime Environment
JVM: OpenJDK 64-Bit Server VM
Java Version: 1.8.0_265-b01
Operating System: Linux
OS Version: 5.7.14-200.fc32.x86_64
Default Encoding: UTF-8
Language: en
Country: US
--></g></svg>