<?xml version="1.0" encoding="UTF-8" standalone="no"?><svg xmlns="http://www.w3.org/2000/svg" xmlns:xlink="http://www.w3.org/1999/xlink" contentScriptType="application/ecmascript" contentStyleType="text/css" height="542px" preserveAspectRatio="none" style="width:856px;height:542px;background:#A9A9A9;" version="1.1" viewBox="0 0 856 542" width="856px" zoomAndPan="magnify"><defs><filter height="300%" id="fxcp60rdnk22p" width="300%" x="-1" y="-1"><feGaussianBlur result="blurOut" stdDeviation="2.0"/><feColorMatrix in="blurOut" result="blurOut2" type="matrix" values="0 0 0 0 0 0 0 0 0 0 0 0 0 0 0 0 0 0 .4 0"/><feOffset dx="4.0" dy="4.0" in="blurOut2" result="blurOut3"/><feBlend in="SourceGraphic" in2="blurOut3" mode="normal"/></filter></defs><g><rect fill="#DDDDDD" height="527.2813" style="stroke: #A80036; stroke-width: 1.0;" width="344" x="501.5" y="4"/><text fill="#000000" font-family="sans-serif" font-size="13" font-weight="bold" lengthAdjust="spacingAndGlyphs" textLength="51" x="648" y="16.0669">plug-in</text><rect fill="#FFFFFF" filter="url(#fxcp60rdnk22p)" height="29.1328" style="stroke: #A80036; stroke-width: 1.0;" width="10" x="284.5" y="208.0234"/><rect fill="#FFFFFF" filter="url(#fxcp60rdnk22p)" height="74.4297" style="stroke: #A80036; stroke-width: 1.0;" width="10" x="608" y="266.2891"/><rect fill="#FFFFFF" filter="url(#fxcp60rdnk22p)" height="14" style="stroke: #A80036; stroke-width: 1.0;" width="10" x="781" y="369.8516"/><rect fill="#FFFFFF" filter="url(#fxcp60rdnk22p)" height="14" style="stroke: #A80036; stroke-width: 1.0;" width="10" x="781" y="412.9844"/><rect fill="#FEFECE" filter="url(#fxcp60rdnk22p)" height="30.2969" style="stroke: #A80036; stroke-width: 1.5;" width="114" x="230.5" y="96.2969"/><text fill="#000000" font-family="sans-serif" font-size="14" lengthAdjust="spacingAndGlyphs" textLength="100" x="237.5" y="116.292">QPluginLoader</text><rect fill="#FEFECE" filter="url(#fxcp60rdnk22p)" height="30.2969" style="stroke: #A80036; stroke-width: 1.5;" width="211" x="505.5" y="141.5938"/><text fill="#000000" font-family="sans-serif" font-size="14" lengthAdjust="spacingAndGlyphs" textLength="197" x="512.5" y="161.5889">MeasurementModuleFactory</text><rect fill="#FEFECE" filter="url(#fxcp60rdnk22p)" height="30.2969" style="stroke: #A80036; stroke-width: 1.5;" width="107" x="730.5" y="274.2891"/><text fill="#000000" font-family="sans-serif" font-size="14" lengthAdjust="spacingAndGlyphs" textLength="93" x="737.5" y="294.2842">VirtualModule</text><line style="stroke: #A80036; stroke-width: 1.0; stroke-dasharray: 5.0,5.0;" x1="67" x2="67" y1="86.2969" y2="444.9844"/><line style="stroke: #A80036; stroke-width: 1.0; stroke-dasharray: 5.0,5.0;" x1="289.5" x2="289.5" y1="128.9453" y2="444.9844"/><line style="stroke: #A80036; stroke-width: 1.0; stroke-dasharray: 5.0,5.0;" x1="612.5" x2="612.5" y1="174.2422" y2="444.9844"/><line style="stroke: #A80036; stroke-width: 1.0; stroke-dasharray: 5.0,5.0;" x1="785.5" x2="785.5" y1="306.9375" y2="444.9844"/><text fill="#000000" font-family="sans-serif" font-size="14" lengthAdjust="spacingAndGlyphs" textLength="113" x="8" y="82.9951">modulemanager</text><ellipse cx="67.5" cy="13" fill="#FEFECE" filter="url(#fxcp60rdnk22p)" rx="8" ry="8" style="stroke: #A80036; stroke-width: 2.0;"/><path d="M67.5,21 L67.5,48 M54.5,29 L80.5,29 M67.5,48 L54.5,63 M67.5,48 L80.5,63 " fill="none" filter="url(#fxcp60rdnk22p)" style="stroke: #A80036; stroke-width: 2.0;"/><text fill="#000000" font-family="sans-serif" font-size="14" lengthAdjust="spacingAndGlyphs" textLength="113" x="8" y="456.9795">modulemanager</text><ellipse cx="67.5" cy="470.2813" fill="#FEFECE" filter="url(#fxcp60rdnk22p)" rx="8" ry="8" style="stroke: #A80036; stroke-width: 2.0;"/><path d="M67.5,478.2813 L67.5,505.2813 M54.5,486.2813 L80.5,486.2813 M67.5,505.2813 L54.5,520.2813 M67.5,505.2813 L80.5,520.2813 " fill="none" filter="url(#fxcp60rdnk22p)" style="stroke: #A80036; stroke-width: 2.0;"/><rect fill="#FEFECE" filter="url(#fxcp60rdnk22p)" height="30.2969" style="stroke: #A80036; stroke-width: 1.5;" width="114" x="230.5" y="443.9844"/><text fill="#000000" font-family="sans-serif" font-size="14" lengthAdjust="spacingAndGlyphs" textLength="100" x="237.5" y="463.9795">QPluginLoader</text><rect fill="#FEFECE" filter="url(#fxcp60rdnk22p)" height="30.2969" style="stroke: #A80036; stroke-width: 1.5;" width="211" x="505.5" y="443.9844"/><text fill="#000000" font-family="sans-serif" font-size="14" lengthAdjust="spacingAndGlyphs" textLength="197" x="512.5" y="463.9795">MeasurementModuleFactory</text><rect fill="#FEFECE" filter="url(#fxcp60rdnk22p)" height="30.2969" style="stroke: #A80036; stroke-width: 1.5;" width="107" x="730.5" y="443.9844"/><text fill="#000000" font-family="sans-serif" font-size="14" lengthAdjust="spacingAndGlyphs" textLength="93" x="737.5" y="463.9795">VirtualModule</text><rect fill="#FFFFFF" filter="url(#fxcp60rdnk22p)" height="29.1328" style="stroke: #A80036; stroke-width: 1.0;" width="10" x="284.5" y="208.0234"/><rect fill="#FFFFFF" filter="url(#fxcp60rdnk22p)" height="74.4297" style="stroke: #A80036; stroke-width: 1.0;" width="10" x="608" y="266.2891"/><rect fill="#FFFFFF" filter="url(#fxcp60rdnk22p)" height="14" style="stroke: #A80036; stroke-width: 1.0;" width="10" x="781" y="369.8516"/><rect fill="#FFFFFF" filter="url(#fxcp60rdnk22p)" height="14" style="stroke: #A80036; stroke-width: 1.0;" width="10" x="781" y="412.9844"/><polygon fill="#A80036" points="218.5,113.4297,228.5,117.4297,218.5,121.4297,222.5,117.4297" style="stroke: #A80036; stroke-width: 1.0;"/><line style="stroke: #A80036; stroke-width: 1.0;" x1="67.5" x2="224.5" y1="117.4297" y2="117.4297"/><text fill="#000000" font-family="sans-serif" font-size="13" lengthAdjust="spacingAndGlyphs" textLength="102" x="74.5" y="112.3638">QPluginLoader()</text><rect fill="#FEFECE" filter="url(#fxcp60rdnk22p)" height="30.2969" style="stroke: #A80036; stroke-width: 1.5;" width="114" x="230.5" y="96.2969"/><text fill="#000000" font-family="sans-serif" font-size="14" lengthAdjust="spacingAndGlyphs" textLength="100" x="237.5" y="116.292">QPluginLoader</text><polygon fill="#A80036" points="493.5,158.7266,503.5,162.7266,493.5,166.7266,497.5,162.7266" style="stroke: #A80036; stroke-width: 1.0;"/><line style="stroke: #A80036; stroke-width: 1.0;" x1="289.5" x2="499.5" y1="162.7266" y2="162.7266"/><text fill="#000000" font-family="sans-serif" font-size="13" lengthAdjust="spacingAndGlyphs" textLength="192" x="296.5" y="157.6606">MeasurementModuleFactory()</text><rect fill="#FEFECE" filter="url(#fxcp60rdnk22p)" height="30.2969" style="stroke: #A80036; stroke-width: 1.5;" width="211" x="505.5" y="141.5938"/><text fill="#000000" font-family="sans-serif" font-size="14" lengthAdjust="spacingAndGlyphs" textLength="197" x="512.5" y="161.5889">MeasurementModuleFactory</text><polygon fill="#A80036" points="272.5,204.0234,282.5,208.0234,272.5,212.0234,276.5,208.0234" style="stroke: #A80036; stroke-width: 1.0;"/><line style="stroke: #A80036; stroke-width: 1.0;" x1="67.5" x2="278.5" y1="208.0234" y2="208.0234"/><text fill="#000000" font-family="sans-serif" font-size="13" lengthAdjust="spacingAndGlyphs" textLength="64" x="74.5" y="202.9575">instance()</text><polygon fill="#A80036" points="78.5,233.1563,68.5,237.1563,78.5,241.1563,74.5,237.1563" style="stroke: #A80036; stroke-width: 1.0;"/><line style="stroke: #A80036; stroke-width: 1.0; stroke-dasharray: 2.0,2.0;" x1="72.5" x2="288.5" y1="237.1563" y2="237.1563"/><ellipse cx="90" cy="227.6563" fill="#000000" rx="2.5" ry="2.5" style="stroke: #000000; stroke-width: 0.0;"/><text fill="#000000" font-family="sans-serif" font-size="13" lengthAdjust="spacingAndGlyphs" textLength="182" x="95.5" y="232.0903">MeasurementModuleFactory</text><polygon fill="#A80036" points="596,262.2891,606,266.2891,596,270.2891,600,266.2891" style="stroke: #A80036; stroke-width: 1.0;"/><line style="stroke: #A80036; stroke-width: 1.0;" x1="67.5" x2="602" y1="266.2891" y2="266.2891"/><text fill="#000000" font-family="sans-serif" font-size="13" lengthAdjust="spacingAndGlyphs" textLength="97" x="74.5" y="261.2231">createModule()</text><polygon fill="#A80036" points="718.5,276.2891,728.5,280.2891,718.5,284.2891,722.5,280.2891" style="stroke: #A80036; stroke-width: 1.0;"/><line style="stroke: #A80036; stroke-width: 1.0;" x1="618" x2="724.5" y1="280.2891" y2="280.2891"/><rect fill="#FEFECE" filter="url(#fxcp60rdnk22p)" height="30.2969" style="stroke: #A80036; stroke-width: 1.5;" width="107" x="730.5" y="274.2891"/><text fill="#000000" font-family="sans-serif" font-size="14" lengthAdjust="spacingAndGlyphs" textLength="93" x="737.5" y="294.2842">VirtualModule</text><polygon fill="#A80036" points="78.5,336.7188,68.5,340.7188,78.5,344.7188,74.5,340.7188" style="stroke: #A80036; stroke-width: 1.0;"/><line style="stroke: #A80036; stroke-width: 1.0; stroke-dasharray: 2.0,2.0;" x1="72.5" x2="612" y1="340.7188" y2="340.7188"/><ellipse cx="90" cy="331.2188" fill="#000000" rx="2.5" ry="2.5" style="stroke: #000000; stroke-width: 0.0;"/><text fill="#000000" font-family="sans-serif" font-size="13" lengthAdjust="spacingAndGlyphs" textLength="87" x="95.5" y="335.6528">VirtualModule</text><polygon fill="#A80036" points="769,365.8516,779,369.8516,769,373.8516,773,369.8516" style="stroke: #A80036; stroke-width: 1.0;"/><line style="stroke: #A80036; stroke-width: 1.0;" x1="67.5" x2="775" y1="369.8516" y2="369.8516"/><text fill="#000000" font-family="sans-serif" font-size="13" lengthAdjust="spacingAndGlyphs" textLength="115" x="74.5" y="364.7856">setConfiguration()</text><polygon fill="#A80036" points="78.5,379.8516,68.5,383.8516,78.5,387.8516,74.5,383.8516" style="stroke: #A80036; stroke-width: 1.0;"/><line style="stroke: #A80036; stroke-width: 1.0; stroke-dasharray: 2.0,2.0;" x1="72.5" x2="785" y1="383.8516" y2="383.8516"/><polygon fill="#A80036" points="769,408.9844,779,412.9844,769,416.9844,773,412.9844" style="stroke: #A80036; stroke-width: 1.0;"/><line style="stroke: #A80036; stroke-width: 1.0;" x1="67.5" x2="775" y1="412.9844" y2="412.9844"/><text fill="#000000" font-family="sans-serif" font-size="13" lengthAdjust="spacingAndGlyphs" textLength="86" x="74.5" y="407.9185">startModule()</text><polygon fill="#A80036" points="78.5,422.9844,68.5,426.9844,78.5,430.9844,74.5,426.9844" style="stroke: #A80036; stroke-width: 1.0;"/><line style="stroke: #A80036; stroke-width: 1.0; stroke-dasharray: 2.0,2.0;" x1="72.5" x2="785" y1="426.9844" y2="426.9844"/><!--
@startuml modPlugSeq
skinparamlocked backgroundColor darkgrey

actor modulemanager
participant QPluginLoader
box plug-in
participant MeasurementModuleFactory 
participant VirtualModule
end box

modulemanager -> QPluginLoader **: QPluginLoader()
QPluginLoader -> MeasurementModuleFactory ** : MeasurementModuleFactory()
modulemanager -> QPluginLoader : instance()
activate QPluginLoader
return *MeasurementModuleFactory
deactivate QPluginLoader
modulemanager -> MeasurementModuleFactory : createModule()
activate MeasurementModuleFactory
MeasurementModuleFactory -> VirtualModule **
return *VirtualModule
deactivate MeasurementModuleFactory
modulemanager -> VirtualModule : setConfiguration()
activate VirtualModule
return 
modulemanager -> VirtualModule : startModule()
activate VirtualModule
return 

@enduml

PlantUML version 1.2019.01(Sat Feb 09 16:32:04 CET 2019)
(LGPL source distribution)
Java Runtime: OpenJDK Runtime Environment
JVM: OpenJDK 64-Bit Server VM
Java Version: 1.8.0_265-b01
Operating System: Linux
OS Version: 5.7.14-200.fc32.x86_64
Default Encoding: UTF-8
Language: en
Country: US
--></g></svg>